u2194_ 700 - 40.ufo
<glyph name="numbersign" format="1">
  <advance width="780"/>
  <unicode hex="0023"/>
  <outline>
    <contour>
      <point x="489" y="559" type="line"/>
      <point x="409" y="239" type="line"/>
      <point x="291" y="239" type="line"/>
      <point x="371" y="559" type="line"/>
    </contour>
    <contour>
      <point x="429" y="-11" type="curve" smooth="yes"/>
      <point x="461" y="116" type="line"/>
      <point x="471" y="159" type="line"/>
      <point x="590" y="159" type="line" smooth="yes"/>
      <point x="612" y="159"/>
      <point x="630" y="177"/>
      <point x="630" y="199" type="curve" smooth="yes"/>
      <point x="630" y="221"/>
      <point x="612" y="239"/>
      <point x="590" y="239" type="curve" smooth="yes"/>
      <point x="491" y="239" type="line"/>
      <point x="571" y="559" type="line"/>
      <point x="690" y="559" type="line" smooth="yes"/>
      <point x="712" y="559"/>
      <point x="730" y="577"/>
      <point x="730" y="599" type="curve" smooth="yes"/>
      <point x="730" y="621"/>
      <point x="712" y="639"/>
      <point x="690" y="639" type="curve" smooth="yes"/>
      <point x="591" y="639" type="line"/>
      <point x="629" y="789" type="line" smooth="yes"/>
      <point x="634" y="810"/>
      <point x="621" y="833"/>
      <point x="600" y="838" type="curve" smooth="yes"/>
      <point x="579" y="843"/>
      <point x="556" y="830"/>
      <point x="551" y="809" type="curve" smooth="yes"/>
      <point x="509" y="639" type="line"/>
      <point x="391" y="639" type="line"/>
      <point x="429" y="789" type="line" smooth="yes"/>
      <point x="434" y="810"/>
      <point x="421" y="833"/>
      <point x="400" y="838" type="curve" smooth="yes"/>
      <point x="379" y="843"/>
      <point x="356" y="830"/>
      <point x="351" y="809" type="curve" smooth="yes"/>
      <point x="309" y="639" type="line"/>
      <point x="184" y="639" type="line" smooth="yes"/>
      <point x="162" y="639"/>
      <point x="144" y="621"/>
      <point x="144" y="599" type="curve" smooth="yes"/>
      <point x="144" y="577"/>
      <point x="162" y="559"/>
      <point x="184" y="559" type="curve" smooth="yes"/>
      <point x="289" y="559" type="line"/>
      <point x="209" y="239" type="line"/>
      <point x="90" y="239" type="line" smooth="yes"/>
      <point x="68" y="239"/>
      <point x="50" y="221"/>
      <point x="50" y="199" type="curve" smooth="yes"/>
      <point x="50" y="177"/>
      <point x="68" y="159"/>
      <point x="90" y="159" type="curve" smooth="yes"/>
      <point x="189" y="159" type="line"/>
      <point x="183" y="136" type="line"/>
      <point x="151" y="9" type="line" smooth="yes"/>
      <point x="146" y="-12"/>
      <point x="159" y="-35"/>
      <point x="180" y="-40" type="curve" smooth="yes"/>
      <point x="201" y="-45"/>
      <point x="224" y="-32"/>
      <point x="229" y="-11" type="curve" smooth="yes"/>
      <point x="261" y="116" type="line"/>
      <point x="271" y="159" type="line"/>
      <point x="389" y="159" type="line"/>
      <point x="383" y="136" type="line"/>
      <point x="351" y="9" type="line" smooth="yes"/>
      <point x="346" y="-12"/>
      <point x="359" y="-35"/>
      <point x="380" y="-40" type="curve" smooth="yes"/>
      <point x="401" y="-45"/>
      <point x="424" y="-32"/>
    </contour>
  </outline>
</glyph>
<glyph name="dollar" format="1">
  <advance width="780"/>
  <unicode hex="0024"/>
  <outline>
    <contour>
      <point x="431" y="-1" type="curve" smooth="yes"/>
      <point x="431" y="691" type="line"/>
      <point x="459" y="739" type="line"/>
      <point x="666" y="568" type="line" smooth="yes"/>
      <point x="682" y="554"/>
      <point x="708" y="557"/>
      <point x="722" y="574" type="curve" smooth="yes"/>
      <point x="736" y="590"/>
      <point x="733" y="616"/>
      <point x="716" y="630" type="curve" smooth="yes"/>
      <point x="474" y="830" type="line" smooth="yes"/>
      <point x="457" y="844"/>
      <point x="434" y="842"/>
      <point x="420" y="826" type="curve"/>
      <point x="412" y="834"/>
      <point x="402" y="839"/>
      <point x="391" y="839" type="curve" smooth="yes"/>
      <point x="369" y="839"/>
      <point x="351" y="821"/>
      <point x="351" y="799" type="curve" smooth="yes"/>
      <point x="351" y="713" type="line"/>
      <point x="56" y="220" type="line" smooth="yes"/>
      <point x="45" y="201"/>
      <point x="51" y="176"/>
      <point x="69" y="165" type="curve" smooth="yes"/>
      <point x="88" y="154"/>
      <point x="113" y="160"/>
      <point x="124" y="178" type="curve" smooth="yes"/>
      <point x="351" y="558" type="line"/>
      <point x="351" y="-1" type="line" smooth="yes"/>
      <point x="351" y="-23"/>
      <point x="369" y="-41"/>
      <point x="391" y="-41" type="curve" smooth="yes"/>
      <point x="413" y="-41"/>
      <point x="431" y="-23"/>
    </contour>
  </outline>
</glyph>
<glyph name="asterisk" format="1">
  <advance width="579"/>
  <unicode hex="002A"/>
  <outline>
    <contour>
      <point x="318" y="730" type="curve" smooth="yes"/>
      <point x="303" y="746"/>
      <point x="277" y="746"/>
      <point x="262" y="730" type="curve" smooth="yes"/>
      <point x="62" y="530" type="line" smooth="yes"/>
      <point x="46" y="515"/>
      <point x="46" y="489"/>
      <point x="62" y="474" type="curve" smooth="yes"/>
      <point x="77" y="458"/>
      <point x="103" y="458"/>
      <point x="118" y="474" type="curve" smooth="yes"/>
      <point x="318" y="674" type="line" smooth="yes"/>
      <point x="334" y="689"/>
      <point x="334" y="715"/>
    </contour>
    <contour>
      <point x="170" y="268" type="curve" smooth="yes"/>
      <point x="341" y="368" type="line"/>
      <point x="408" y="278" type="line" smooth="yes"/>
      <point x="421" y="261"/>
      <point x="447" y="257"/>
      <point x="464" y="270" type="curve" smooth="yes"/>
      <point x="481" y="283"/>
      <point x="485" y="309"/>
      <point x="472" y="326" type="curve" smooth="yes"/>
      <point x="410" y="409" type="line"/>
      <point x="510" y="468" type="line" smooth="yes"/>
      <point x="529" y="478"/>
      <point x="535" y="504"/>
      <point x="524" y="522" type="curve" smooth="yes"/>
      <point x="514" y="541"/>
      <point x="488" y="547"/>
      <point x="470" y="536" type="curve" smooth="yes"/>
      <point x="362" y="473" type="line"/>
      <point x="322" y="526" type="line" smooth="yes"/>
      <point x="309" y="543"/>
      <point x="283" y="547"/>
      <point x="266" y="534" type="curve" smooth="yes"/>
      <point x="249" y="521"/>
      <point x="245" y="495"/>
      <point x="258" y="478" type="curve" smooth="yes"/>
      <point x="292" y="432" type="line"/>
      <point x="130" y="336" type="line" smooth="yes"/>
      <point x="111" y="326"/>
      <point x="105" y="300"/>
      <point x="116" y="282" type="curve" smooth="yes"/>
      <point x="126" y="263"/>
      <point x="152" y="257"/>
    </contour>
  </outline>
</glyph>
<glyph name="comma" format="1">
  <advance width="279"/>
  <unicode hex="002C"/>
  <outline>
    <contour>
      <point x="208" y="178" type="curve" smooth="yes"/>
      <point x="189" y="187"/>
      <point x="164" y="179"/>
      <point x="154" y="160" type="curve" smooth="yes"/>
      <point x="54" y="-40" type="line" smooth="yes"/>
      <point x="45" y="-59"/>
      <point x="53" y="-84"/>
      <point x="72" y="-94" type="curve" smooth="yes"/>
      <point x="91" y="-103"/>
      <point x="116" y="-95"/>
      <point x="126" y="-76" type="curve" smooth="yes"/>
      <point x="226" y="124" type="line" smooth="yes"/>
      <point x="235" y="143"/>
      <point x="227" y="168"/>
    </contour>
  </outline>
</glyph>
<glyph name="period" format="1">
  <advance width="180"/>
  <unicode hex="002E"/>
  <outline>
    <contour>
      <point x="90" y="50" type="curve" smooth="yes"/>
      <point x="68" y="50"/>
      <point x="50" y="32"/>
      <point x="50" y="10" type="curve" smooth="yes"/>
      <point x="50" y="0" type="line" smooth="yes"/>
      <point x="50" y="-22"/>
      <point x="68" y="-40"/>
      <point x="90" y="-40" type="curve" smooth="yes"/>
      <point x="112" y="-40"/>
      <point x="130" y="-22"/>
      <point x="130" y="0" type="curve" smooth="yes"/>
      <point x="130" y="10" type="line" smooth="yes"/>
      <point x="130" y="32"/>
      <point x="112" y="50"/>
    </contour>
  </outline>
</glyph>
<glyph name="zero" format="1">
  <advance width="782"/>
  <unicode hex="0030"/>
  <outline>
    <contour>
      <point x="321" y="-27" type="curve" smooth="yes"/>
      <point x="325" y="-23"/>
      <point x="328" y="-17"/>
      <point x="330" y="-12" type="curve"/>
      <point x="724" y="549" type="line" smooth="yes"/>
      <point x="750" y="587"/>
      <point x="710" y="630"/>
      <point x="670" y="606" type="curve" smooth="yes"/>
      <point x="538" y="527" type="line"/>
      <point x="677" y="710" type="line" smooth="yes"/>
      <point x="690" y="727"/>
      <point x="686" y="753"/>
      <point x="669" y="766" type="curve" smooth="yes"/>
      <point x="652" y="779"/>
      <point x="626" y="775"/>
      <point x="613" y="758" type="curve" smooth="yes"/>
      <point x="354" y="417" type="line"/>
      <point x="70" y="246" type="line" smooth="yes"/>
      <point x="47" y="232"/>
      <point x="43" y="204"/>
      <point x="62" y="184" type="curve" smooth="yes"/>
      <point x="127" y="117" type="line"/>
      <point x="99" y="80" type="line" smooth="yes"/>
      <point x="86" y="63"/>
      <point x="90" y="37"/>
      <point x="107" y="24" type="curve" smooth="yes"/>
      <point x="124" y="11"/>
      <point x="150" y="15"/>
      <point x="163" y="32" type="curve" smooth="yes"/>
      <point x="183" y="59" type="line"/>
      <point x="256" y="-18" type="line"/>
      <point x="259" y="-23"/>
      <point x="263" y="-27"/>
      <point x="268" y="-31" type="curve" smooth="yes"/>
      <point x="275" y="-36"/>
      <point x="284" y="-38"/>
      <point x="293" y="-38" type="curve"/>
      <point x="303" y="-38"/>
      <point x="313" y="-34"/>
    </contour>
    <contour>
      <point x="260" y="159" type="line"/>
      <point x="409" y="356" type="line"/>
      <point x="550" y="441" type="line"/>
      <point x="287" y="66" type="line"/>
      <point x="232" y="123" type="line"/>
    </contour>
    <contour>
      <point x="196" y="208" type="line"/>
      <point x="176" y="181" type="line"/>
      <point x="155" y="204" type="line"/>
      <point x="224" y="245" type="line"/>
    </contour>
  </outline>
</glyph>
<glyph name="one" format="1">
  <advance width="780"/>
  <unicode hex="0031"/>
  <outline>
    <contour>
      <point x="90" y="-39" type="curve" smooth="yes"/>
      <point x="690" y="-39" type="line" smooth="yes"/>
      <point x="712" y="-39"/>
      <point x="730" y="-21"/>
      <point x="730" y="1" type="curve" smooth="yes"/>
      <point x="730" y="23"/>
      <point x="712" y="41"/>
      <point x="690" y="41" type="curve" smooth="yes"/>
      <point x="244" y="41" type="line"/>
      <point x="428" y="660" type="line" smooth="yes"/>
      <point x="438" y="691"/>
      <point x="413" y="718"/>
      <point x="381" y="710" type="curve" smooth="yes"/>
      <point x="81" y="640" type="line" smooth="yes"/>
      <point x="60" y="635"/>
      <point x="46" y="613"/>
      <point x="51" y="592" type="curve" smooth="yes"/>
      <point x="56" y="571"/>
      <point x="78" y="557"/>
      <point x="99" y="562" type="curve" smooth="yes"/>
      <point x="332" y="616" type="line"/>
      <point x="160" y="41" type="line"/>
      <point x="90" y="41" type="line" smooth="yes"/>
      <point x="68" y="41"/>
      <point x="50" y="23"/>
      <point x="50" y="1" type="curve" smooth="yes"/>
      <point x="50" y="-21"/>
      <point x="68" y="-39"/>
    </contour>
  </outline>
</glyph>
<glyph name="two" format="1">
  <advance width="780"/>
  <unicode hex="0032"/>
  <outline>
    <contour>
      <point x="691" y="-40" type="curve" smooth="yes"/>
      <point x="713" y="-39"/>
      <point x="731" y="-20"/>
      <point x="730" y="1" type="curve" smooth="yes"/>
      <point x="710" y="692" type="line" smooth="yes"/>
      <point x="709" y="717"/>
      <point x="688" y="734"/>
      <point x="664" y="730" type="curve" smooth="yes"/>
      <point x="84" y="640" type="line" smooth="yes"/>
      <point x="62" y="636"/>
      <point x="47" y="615"/>
      <point x="50" y="594" type="curve" smooth="yes"/>
      <point x="54" y="572"/>
      <point x="75" y="557"/>
      <point x="96" y="560" type="curve" smooth="yes"/>
      <point x="631" y="644" type="line"/>
      <point x="650" y="-1" type="line" smooth="yes"/>
      <point x="651" y="-23"/>
      <point x="670" y="-41"/>
    </contour>
  </outline>
</glyph>
<glyph name="three" format="1">
  <advance width="781"/>
  <unicode hex="0033"/>
  <outline>
    <contour>
      <point x="93" y="161" type="curve" smooth="yes"/>
      <point x="692" y="204" type="line" smooth="yes"/>
      <point x="734" y="208"/>
      <point x="746" y="257"/>
      <point x="709" y="279" type="curve" smooth="yes"/>
      <point x="110" y="635" type="line" smooth="yes"/>
      <point x="92" y="646"/>
      <point x="67" y="640"/>
      <point x="56" y="621" type="curve" smooth="yes"/>
      <point x="45" y="603"/>
      <point x="51" y="578"/>
      <point x="70" y="567" type="curve" smooth="yes"/>
      <point x="559" y="275" type="line"/>
      <point x="87" y="241" type="line" smooth="yes"/>
      <point x="66" y="239"/>
      <point x="49" y="220"/>
      <point x="50" y="198" type="curve" smooth="yes"/>
      <point x="52" y="177"/>
      <point x="71" y="160"/>
    </contour>
  </outline>
</glyph>
<glyph name="four" format="1">
  <advance width="541"/>
  <unicode hex="0034"/>
  <outline>
    <contour>
      <point x="451" y="-39" type="curve" smooth="yes"/>
      <point x="473" y="-39"/>
      <point x="491" y="-21"/>
      <point x="491" y="1" type="curve" smooth="yes"/>
      <point x="491" y="600" type="line" smooth="yes"/>
      <point x="491" y="622"/>
      <point x="473" y="640"/>
      <point x="451" y="640" type="curve" smooth="yes"/>
      <point x="429" y="640"/>
      <point x="411" y="622"/>
      <point x="411" y="600" type="curve" smooth="yes"/>
      <point x="411" y="243" type="line"/>
      <point x="136" y="697" type="line"/>
      <point x="185" y="779" type="line" smooth="yes"/>
      <point x="196" y="798"/>
      <point x="190" y="823"/>
      <point x="172" y="834" type="curve" smooth="yes"/>
      <point x="153" y="845"/>
      <point x="128" y="839"/>
      <point x="117" y="821" type="curve" smooth="yes"/>
      <point x="55" y="717" type="line" smooth="yes"/>
      <point x="48" y="706"/>
      <point x="48" y="687"/>
      <point x="55" y="676" type="curve" smooth="yes"/>
      <point x="411" y="89" type="line"/>
      <point x="411" y="1" type="line" smooth="yes"/>
      <point x="411" y="-21"/>
      <point x="429" y="-39"/>
    </contour>
  </outline>
</glyph>
<glyph name="five" format="1">
  <advance width="780"/>
  <unicode hex="0035"/>
  <outline>
    <contour>
      <point x="124" y="180" type="curve" smooth="yes"/>
      <point x="473" y="761" type="line"/>
      <point x="690" y="761" type="line" smooth="yes"/>
      <point x="712" y="761"/>
      <point x="730" y="779"/>
      <point x="730" y="801" type="curve" smooth="yes"/>
      <point x="730" y="823"/>
      <point x="712" y="841"/>
      <point x="690" y="841" type="curve" smooth="yes"/>
      <point x="450" y="841" type="line" smooth="yes"/>
      <point x="437" y="841"/>
      <point x="422" y="832"/>
      <point x="416" y="822" type="curve" smooth="yes"/>
      <point x="56" y="222" type="line" smooth="yes"/>
      <point x="45" y="203"/>
      <point x="51" y="178"/>
      <point x="69" y="167" type="curve" smooth="yes"/>
      <point x="88" y="156"/>
      <point x="113" y="162"/>
    </contour>
  </outline>
</glyph>
<glyph name="six" format="1">
  <advance width="782"/>
  <unicode hex="0036"/>
  <outline>
    <contour>
      <point x="670" y="210" type="line"/>
      <point x="711" y="279" type="line"/>
      <point x="237" y="561" type="line"/>
      <point x="692" y="561" type="line" smooth="yes"/>
      <point x="714" y="561"/>
      <point x="732" y="579"/>
      <point x="732" y="601" type="curve" smooth="yes"/>
      <point x="732" y="623"/>
      <point x="714" y="641"/>
      <point x="692" y="641" type="curve" smooth="yes"/>
      <point x="92" y="641" type="line" smooth="yes"/>
      <point x="48" y="641"/>
      <point x="34" y="589"/>
      <point x="72" y="567" type="curve" smooth="yes"/>
    </contour>
  </outline>
</glyph>
<glyph name="seven" format="1">
  <advance width="763"/>
  <unicode hex="0037"/>
  <outline>
    <contour>
      <point x="323" y="-25" type="curve" smooth="yes"/>
      <point x="706" y="550" type="line" smooth="yes"/>
      <point x="721" y="572"/>
      <point x="712" y="600"/>
      <point x="687" y="609" type="curve" smooth="yes"/>
      <point x="104" y="834" type="line" smooth="yes"/>
      <point x="84" y="842"/>
      <point x="60" y="832"/>
      <point x="53" y="811" type="curve" smooth="yes"/>
      <point x="45" y="791"/>
      <point x="55" y="767"/>
      <point x="76" y="760" type="curve" smooth="yes"/>
      <point x="611" y="553" type="line"/>
      <point x="257" y="19" type="line" smooth="yes"/>
      <point x="245" y="1"/>
      <point x="250" y="-24"/>
      <point x="268" y="-36" type="curve" smooth="yes"/>
      <point x="286" y="-48"/>
      <point x="311" y="-43"/>
    </contour>
  </outline>
</glyph>
<glyph name="eight" format="1">
  <advance width="190"/>
  <unicode hex="0038"/>
  <outline>
    <contour>
      <point x="140" y="400" type="curve" smooth="yes"/>
      <point x="140" y="422"/>
      <point x="122" y="440"/>
      <point x="100" y="440" type="curve" smooth="yes"/>
      <point x="90" y="440" type="line" smooth="yes"/>
      <point x="68" y="440"/>
      <point x="50" y="422"/>
      <point x="50" y="400" type="curve" smooth="yes"/>
      <point x="50" y="378"/>
      <point x="68" y="360"/>
      <point x="90" y="360" type="curve" smooth="yes"/>
      <point x="100" y="360" type="line" smooth="yes"/>
      <point x="122" y="360"/>
      <point x="140" y="378"/>
    </contour>
  </outline>
</glyph>
<glyph name="nine" format="1">
  <advance width="782"/>
  <unicode hex="0039"/>
  <outline>
    <contour>
      <point x="90" y="160" type="curve" smooth="yes"/>
      <point x="690" y="160" type="line" smooth="yes"/>
      <point x="734" y="160"/>
      <point x="748" y="212"/>
      <point x="710" y="234" type="curve" smooth="yes"/>
      <point x="112" y="591" type="line"/>
      <point x="71" y="522" type="line"/>
      <point x="545" y="240" type="line"/>
      <point x="90" y="240" type="line" smooth="yes"/>
      <point x="68" y="240"/>
      <point x="50" y="222"/>
      <point x="50" y="200" type="curve" smooth="yes"/>
      <point x="50" y="178"/>
      <point x="68" y="160"/>
    </contour>
  </outline>
</glyph>
<glyph name="colon" format="1">
  <advance width="182"/>
  <unicode hex="003A"/>
  <outline>
    <contour>
      <point x="90" y="543" type="curve" smooth="yes"/>
      <point x="112" y="543"/>
      <point x="130" y="561"/>
      <point x="130" y="583" type="curve" smooth="yes"/>
      <point x="130" y="592" type="line" smooth="yes"/>
      <point x="130" y="614"/>
      <point x="112" y="632"/>
      <point x="90" y="632" type="curve" smooth="yes"/>
      <point x="68" y="632"/>
      <point x="50" y="614"/>
      <point x="50" y="592" type="curve" smooth="yes"/>
      <point x="50" y="583" type="line" smooth="yes"/>
      <point x="50" y="561"/>
      <point x="68" y="543"/>
    </contour>
    <contour>
      <point x="92" y="-39" type="curve" smooth="yes"/>
      <point x="114" y="-39"/>
      <point x="132" y="-21"/>
      <point x="132" y="1" type="curve" smooth="yes"/>
      <point x="132" y="5" type="line" smooth="yes"/>
      <point x="132" y="27"/>
      <point x="114" y="45"/>
      <point x="92" y="45" type="curve" smooth="yes"/>
      <point x="70" y="45"/>
      <point x="52" y="27"/>
      <point x="52" y="5" type="curve" smooth="yes"/>
      <point x="52" y="1" type="line" smooth="yes"/>
      <point x="52" y="-21"/>
      <point x="70" y="-39"/>
    </contour>
  </outline>
</glyph>
<glyph name="less" format="1">
  <advance width="180"/>
  <unicode hex="003C"/>
  <outline>
    <contour>
      <point x="90" y="543" type="curve" smooth="yes"/>
      <point x="68" y="543"/>
      <point x="50" y="525"/>
      <point x="50" y="503" type="curve" smooth="yes"/>
      <point x="50" y="103" type="line" smooth="yes"/>
      <point x="50" y="81"/>
      <point x="68" y="63"/>
      <point x="90" y="63" type="curve" smooth="yes"/>
      <point x="112" y="63"/>
      <point x="130" y="81"/>
      <point x="130" y="103" type="curve" smooth="yes"/>
      <point x="130" y="503" type="line" smooth="yes"/>
      <point x="130" y="525"/>
      <point x="112" y="543"/>
    </contour>
  </outline>
</glyph>
<glyph name="equal" format="1">
  <advance width="780"/>
  <unicode hex="003D"/>
  <outline>
    <contour>
      <point x="50" y="438" type="curve" smooth="yes"/>
      <point x="50" y="416"/>
      <point x="68" y="398"/>
      <point x="90" y="398" type="curve" smooth="yes"/>
      <point x="690" y="398" type="line" smooth="yes"/>
      <point x="712" y="398"/>
      <point x="730" y="416"/>
      <point x="730" y="438" type="curve" smooth="yes"/>
      <point x="730" y="460"/>
      <point x="712" y="478"/>
      <point x="690" y="478" type="curve" smooth="yes"/>
      <point x="90" y="478" type="line" smooth="yes"/>
      <point x="68" y="478"/>
      <point x="50" y="460"/>
    </contour>
    <contour>
      <point x="50" y="138" type="curve" smooth="yes"/>
      <point x="50" y="116"/>
      <point x="68" y="98"/>
      <point x="90" y="98" type="curve" smooth="yes"/>
      <point x="690" y="98" type="line" smooth="yes"/>
      <point x="712" y="98"/>
      <point x="730" y="116"/>
      <point x="730" y="138" type="curve" smooth="yes"/>
      <point x="730" y="160"/>
      <point x="712" y="178"/>
      <point x="690" y="178" type="curve" smooth="yes"/>
      <point x="90" y="178" type="line" smooth="yes"/>
      <point x="68" y="178"/>
      <point x="50" y="160"/>
    </contour>
  </outline>
</glyph>
<glyph name="question" format="1">
  <advance width="379"/>
  <unicode hex="003F"/>
  <outline>
    <contour>
      <point x="307" y="164" type="curve" smooth="yes"/>
      <point x="326" y="174"/>
      <point x="334" y="199"/>
      <point x="325" y="218" type="curve" smooth="yes"/>
      <point x="126" y="617" type="line" smooth="yes"/>
      <point x="116" y="636"/>
      <point x="91" y="644"/>
      <point x="72" y="635" type="curve" smooth="yes"/>
      <point x="53" y="625"/>
      <point x="45" y="600"/>
      <point x="54" y="581" type="curve" smooth="yes"/>
      <point x="253" y="182" type="line" smooth="yes"/>
      <point x="263" y="163"/>
      <point x="288" y="155"/>
    </contour>
    <contour>
      <point x="289" y="-40" type="curve" smooth="yes"/>
      <point x="311" y="-40"/>
      <point x="329" y="-22"/>
      <point x="329" y="0" type="curve" smooth="yes"/>
      <point x="329" y="11" type="line" smooth="yes"/>
      <point x="329" y="33"/>
      <point x="311" y="51"/>
      <point x="289" y="51" type="curve" smooth="yes"/>
      <point x="267" y="51"/>
      <point x="249" y="33"/>
      <point x="249" y="11" type="curve" smooth="yes"/>
      <point x="249" y="0" type="line" smooth="yes"/>
      <point x="249" y="-22"/>
      <point x="267" y="-40"/>
    </contour>
  </outline>
</glyph>
<glyph name="at" format="1">
  <advance width="581"/>
  <unicode hex="0040"/>
  <outline>
    <contour>
      <point x="514" y="-75" type="curve" smooth="yes"/>
      <point x="532" y="-62"/>
      <point x="536" y="-37"/>
      <point x="524" y="-19" type="curve" smooth="yes"/>
      <point x="164" y="496" type="line"/>
      <point x="451" y="515" type="line"/>
      <point x="451" y="158" type="line" smooth="yes"/>
      <point x="451" y="136"/>
      <point x="469" y="118"/>
      <point x="491" y="118" type="curve" smooth="yes"/>
      <point x="513" y="118"/>
      <point x="531" y="136"/>
      <point x="531" y="158" type="curve" smooth="yes"/>
      <point x="531" y="558" type="line" smooth="yes"/>
      <point x="531" y="560" type="line"/>
      <point x="531" y="561" type="line" smooth="yes"/>
      <point x="531" y="562" type="line"/>
      <point x="531" y="560"/>
      <point x="531" y="562"/>
      <point x="531" y="563" type="curve"/>
      <point x="531" y="563"/>
      <point x="530" y="565"/>
      <point x="530" y="567" type="curve"/>
      <point x="530" y="567"/>
      <point x="530" y="568"/>
      <point x="529" y="569" type="curve"/>
      <point x="529" y="570"/>
      <point x="529" y="571"/>
      <point x="528" y="572" type="curve"/>
      <point x="528" y="572"/>
      <point x="528" y="573"/>
      <point x="528" y="573" type="curve"/>
      <point x="527" y="575"/>
      <point x="527" y="576"/>
      <point x="526" y="577" type="curve"/>
      <point x="526" y="577"/>
      <point x="526" y="578"/>
      <point x="525" y="578" type="curve"/>
      <point x="525" y="579"/>
      <point x="524" y="580"/>
      <point x="523" y="581" type="curve"/>
      <point x="523" y="582"/>
      <point x="523" y="582"/>
      <point x="522" y="583" type="curve"/>
      <point x="522" y="583"/>
      <point x="521" y="584"/>
      <point x="520" y="585" type="curve"/>
      <point x="520" y="586"/>
      <point x="519" y="586"/>
      <point x="519" y="587" type="curve"/>
      <point x="518" y="587"/>
      <point x="517" y="588"/>
      <point x="517" y="588" type="curve"/>
      <point x="516" y="589"/>
      <point x="515" y="590"/>
      <point x="514" y="590" type="curve"/>
      <point x="514" y="591"/>
      <point x="513" y="591"/>
      <point x="513" y="591" type="curve"/>
      <point x="512" y="592"/>
      <point x="511" y="593"/>
      <point x="510" y="593" type="curve"/>
      <point x="509" y="593"/>
      <point x="509" y="594"/>
      <point x="508" y="594" type="curve"/>
      <point x="507" y="594"/>
      <point x="506" y="595"/>
      <point x="505" y="595" type="curve"/>
      <point x="504" y="596"/>
      <point x="504" y="596"/>
      <point x="503" y="596" type="curve"/>
      <point x="502" y="596"/>
      <point x="501" y="597"/>
      <point x="500" y="597" type="curve"/>
      <point x="499" y="597"/>
      <point x="499" y="597"/>
      <point x="498" y="597" type="curve"/>
      <point x="492" y="598"/>
      <point x="494" y="598"/>
      <point x="495" y="598" type="curve"/>
      <point x="490" y="598"/>
      <point x="491" y="598"/>
      <point x="493" y="598" type="curve"/>
      <point x="491" y="598" type="line" smooth="yes"/>
      <point x="489" y="598" type="line"/>
      <point x="488" y="598" type="line" smooth="yes"/>
      <point x="88" y="572" type="line" smooth="yes"/>
      <point x="55" y="569"/>
      <point x="39" y="537"/>
      <point x="58" y="509" type="curve" smooth="yes"/>
      <point x="458" y="-65" type="line" smooth="yes"/>
      <point x="471" y="-83"/>
      <point x="496" y="-87"/>
    </contour>
  </outline>
</glyph>
<glyph name="A" format="1">
  <advance width="180"/>
  <unicode hex="0041"/>
  <outline>
    <contour>
      <point x="90" y="386" type="curve" smooth="yes"/>
      <point x="68" y="386"/>
      <point x="50" y="368"/>
      <point x="50" y="346" type="curve" smooth="yes"/>
      <point x="50" y="-4" type="line" smooth="yes"/>
      <point x="50" y="-26"/>
      <point x="68" y="-44"/>
      <point x="90" y="-44" type="curve" smooth="yes"/>
      <point x="112" y="-44"/>
      <point x="130" y="-26"/>
      <point x="130" y="-4" type="curve" smooth="yes"/>
      <point x="130" y="346" type="line" smooth="yes"/>
      <point x="130" y="368"/>
      <point x="112" y="386"/>
    </contour>
  </outline>
</glyph>
<glyph name="B" format="1">
  <advance width="580"/>
  <unicode hex="0042"/>
  <outline>
    <contour>
      <point x="530" y="404" type="curve" smooth="yes"/>
      <point x="530" y="426"/>
      <point x="512" y="444"/>
      <point x="490" y="444" type="curve" smooth="yes"/>
      <point x="90" y="444" type="line" smooth="yes"/>
      <point x="68" y="444"/>
      <point x="50" y="426"/>
      <point x="50" y="404" type="curve" smooth="yes"/>
      <point x="50" y="382"/>
      <point x="68" y="364"/>
      <point x="90" y="364" type="curve" smooth="yes"/>
      <point x="490" y="364" type="line" smooth="yes"/>
      <point x="512" y="364"/>
      <point x="530" y="382"/>
    </contour>
  </outline>
</glyph>
<glyph name="C" format="1">
  <advance width="782"/>
  <unicode hex="0043"/>
  <outline>
    <contour>
      <point x="732" y="195" type="curve" smooth="yes"/>
      <point x="734" y="216"/>
      <point x="717" y="236"/>
      <point x="695" y="238" type="curve" smooth="yes"/>
      <point x="222" y="275" type="line"/>
      <point x="712" y="564" type="line" smooth="yes"/>
      <point x="731" y="574"/>
      <point x="737" y="600"/>
      <point x="726" y="618" type="curve" smooth="yes"/>
      <point x="716" y="637"/>
      <point x="690" y="643"/>
      <point x="672" y="632" type="curve" smooth="yes"/>
      <point x="72" y="280" type="line" smooth="yes"/>
      <point x="35" y="259"/>
      <point x="47" y="209"/>
      <point x="89" y="206" type="curve" smooth="yes"/>
      <point x="689" y="158" type="line" smooth="yes"/>
      <point x="710" y="156"/>
      <point x="730" y="173"/>
    </contour>
  </outline>
</glyph>
<glyph name="D" format="1">
  <advance width="780"/>
  <unicode hex="0044"/>
  <outline>
    <contour>
      <point x="111" y="204" type="curve" smooth="yes"/>
      <point x="711" y="554" type="line" smooth="yes"/>
      <point x="725" y="563"/>
      <point x="732" y="579"/>
      <point x="730" y="594" type="curve"/>
      <point x="732" y="603"/>
      <point x="730" y="612"/>
      <point x="725" y="620" type="curve" smooth="yes"/>
      <point x="714" y="638"/>
      <point x="689" y="644"/>
      <point x="670" y="633" type="curve" smooth="yes"/>
      <point x="70" y="273" type="line" smooth="yes"/>
      <point x="25" y="246"/>
      <point x="66" y="178"/>
    </contour>
  </outline>
</glyph>
<glyph name="F" format="1">
  <advance width="779"/>
  <unicode hex="0046"/>
  <outline>
    <contour>
      <point x="89" y="-40" type="curve" smooth="yes"/>
      <point x="111" y="-40"/>
      <point x="130" y="-22"/>
      <point x="130" y="-1" type="curve" smooth="yes"/>
      <point x="133" y="223" type="line"/>
      <point x="710" y="568" type="line" smooth="yes"/>
      <point x="728" y="579"/>
      <point x="734" y="604"/>
      <point x="723" y="623" type="curve" smooth="yes"/>
      <point x="712" y="641"/>
      <point x="687" y="647"/>
      <point x="668" y="636" type="curve" smooth="yes"/>
      <point x="73" y="280" type="line" smooth="yes"/>
      <point x="63" y="274"/>
      <point x="54" y="259"/>
      <point x="54" y="247" type="curve" smooth="yes"/>
      <point x="50" y="1" type="line" smooth="yes"/>
      <point x="50" y="-21"/>
      <point x="68" y="-40"/>
    </contour>
  </outline>
</glyph>
<glyph name="G" format="1">
  <advance width="780"/>
  <unicode hex="0047"/>
  <outline>
    <contour>
      <point x="112" y="210" type="curve" smooth="yes"/>
      <point x="712" y="570" type="line" smooth="yes"/>
      <point x="730" y="581"/>
      <point x="736" y="606"/>
      <point x="725" y="625" type="curve" smooth="yes"/>
      <point x="714" y="643"/>
      <point x="689" y="649"/>
      <point x="670" y="638" type="curve" smooth="yes"/>
      <point x="199" y="355" type="line"/>
      <point x="326" y="585" type="line" smooth="yes"/>
      <point x="336" y="603"/>
      <point x="329" y="628"/>
      <point x="310" y="639" type="curve" smooth="yes"/>
      <point x="292" y="649"/>
      <point x="267" y="642"/>
      <point x="256" y="623" type="curve" smooth="yes"/>
      <point x="56" y="263" type="line" smooth="yes"/>
      <point x="35" y="225"/>
      <point x="74" y="187"/>
    </contour>
  </outline>
</glyph>
<glyph name="H" format="1">
  <advance width="780"/>
  <unicode hex="0048"/>
  <outline>
    <contour>
      <point x="690" y="-44" type="curve" smooth="yes"/>
      <point x="712" y="-44"/>
      <point x="730" y="-26"/>
      <point x="730" y="-4" type="curve" smooth="yes"/>
      <point x="730" y="696" type="line" smooth="yes"/>
      <point x="730" y="731"/>
      <point x="697" y="749"/>
      <point x="668" y="729" type="curve" smooth="yes"/>
      <point x="150" y="383" type="line"/>
      <point x="130" y="798" type="line" smooth="yes"/>
      <point x="129" y="819"/>
      <point x="110" y="837"/>
      <point x="88" y="836" type="curve" smooth="yes"/>
      <point x="67" y="835"/>
      <point x="49" y="816"/>
      <point x="50" y="794" type="curve" smooth="yes"/>
      <point x="73" y="309" type="line" smooth="yes"/>
      <point x="75" y="275"/>
      <point x="107" y="259"/>
      <point x="135" y="278" type="curve" smooth="yes"/>
      <point x="650" y="621" type="line"/>
      <point x="650" y="-4" type="line" smooth="yes"/>
      <point x="650" y="-26"/>
      <point x="668" y="-44"/>
    </contour>
  </outline>
</glyph>
<glyph name="K" format="1">
  <advance width="780"/>
  <unicode hex="004B"/>
  <outline>
    <contour>
      <point x="724" y="-17" type="curve" smooth="yes"/>
      <point x="735" y="2"/>
      <point x="729" y="27"/>
      <point x="711" y="38" type="curve" smooth="yes"/>
      <point x="130" y="387" type="line"/>
      <point x="130" y="804" type="line" smooth="yes"/>
      <point x="130" y="826"/>
      <point x="112" y="844"/>
      <point x="90" y="844" type="curve" smooth="yes"/>
      <point x="68" y="844"/>
      <point x="50" y="826"/>
      <point x="50" y="804" type="curve" smooth="yes"/>
      <point x="50" y="364" type="line" smooth="yes"/>
      <point x="50" y="351"/>
      <point x="59" y="336"/>
      <point x="69" y="330" type="curve" smooth="yes"/>
      <point x="669" y="-30" type="line" smooth="yes"/>
      <point x="688" y="-41"/>
      <point x="713" y="-35"/>
    </contour>
    <contour>
      <point x="472" y="368" type="curve" smooth="yes"/>
      <point x="491" y="359"/>
      <point x="516" y="367"/>
      <point x="526" y="386" type="curve" smooth="yes"/>
      <point x="726" y="786" type="line" smooth="yes"/>
      <point x="735" y="805"/>
      <point x="727" y="830"/>
      <point x="708" y="840" type="curve" smooth="yes"/>
      <point x="689" y="849"/>
      <point x="664" y="841"/>
      <point x="654" y="822" type="curve" smooth="yes"/>
      <point x="454" y="422" type="line" smooth="yes"/>
      <point x="445" y="403"/>
      <point x="453" y="378"/>
    </contour>
  </outline>
</glyph>
<glyph name="N" format="1">
  <advance width="780"/>
  <unicode hex="004E"/>
  <outline>
    <contour>
      <point x="130" y="-1" type="curve" smooth="yes"/>
      <point x="130" y="71" type="line"/>
      <point x="373" y="621" type="line"/>
      <point x="655" y="81" type="line" smooth="yes"/>
      <point x="675" y="41"/>
      <point x="730" y="54"/>
      <point x="730" y="99" type="curve" smooth="yes"/>
      <point x="730" y="799" type="line" smooth="yes"/>
      <point x="730" y="821"/>
      <point x="712" y="839"/>
      <point x="690" y="839" type="curve" smooth="yes"/>
      <point x="668" y="839"/>
      <point x="650" y="821"/>
      <point x="650" y="799" type="curve" smooth="yes"/>
      <point x="650" y="262" type="line"/>
      <point x="405" y="731" type="line" smooth="yes"/>
      <point x="388" y="764"/>
      <point x="348" y="762"/>
      <point x="333" y="729" type="curve" smooth="yes"/>
      <point x="53" y="95" type="line" smooth="yes"/>
      <point x="52" y="91"/>
      <point x="50" y="84"/>
      <point x="50" y="79" type="curve" smooth="yes"/>
      <point x="50" y="-1" type="line" smooth="yes"/>
      <point x="50" y="-23"/>
      <point x="68" y="-41"/>
      <point x="90" y="-41" type="curve" smooth="yes"/>
      <point x="112" y="-41"/>
      <point x="130" y="-23"/>
    </contour>
  </outline>
</glyph>
<glyph name="R" format="1">
  <advance width="780"/>
  <unicode hex="0052"/>
  <outline>
    <contour>
      <point x="723" y="-28" type="curve" smooth="yes"/>
      <point x="736" y="-11"/>
      <point x="732" y="15"/>
      <point x="715" y="28" type="curve" smooth="yes"/>
      <point x="457" y="221" type="line"/>
      <point x="515" y="264" type="line" smooth="yes"/>
      <point x="532" y="277"/>
      <point x="536" y="303"/>
      <point x="523" y="320" type="curve" smooth="yes"/>
      <point x="510" y="337"/>
      <point x="484" y="341"/>
      <point x="467" y="328" type="curve" smooth="yes"/>
      <point x="391" y="271" type="line"/>
      <point x="314" y="328" type="line" smooth="yes"/>
      <point x="297" y="341"/>
      <point x="271" y="337"/>
      <point x="258" y="320" type="curve" smooth="yes"/>
      <point x="245" y="303"/>
      <point x="249" y="277"/>
      <point x="266" y="264" type="curve" smooth="yes"/>
      <point x="324" y="221" type="line"/>
      <point x="66" y="28" type="line" smooth="yes"/>
      <point x="49" y="15"/>
      <point x="45" y="-11"/>
      <point x="58" y="-28" type="curve" smooth="yes"/>
      <point x="71" y="-45"/>
      <point x="97" y="-49"/>
      <point x="114" y="-36" type="curve" smooth="yes"/>
      <point x="391" y="171" type="line"/>
      <point x="667" y="-36" type="line" smooth="yes"/>
      <point x="684" y="-49"/>
      <point x="710" y="-45"/>
    </contour>
  </outline>
</glyph>
<glyph name="S" format="1">
  <advance width="781"/>
  <unicode hex="0053"/>
  <outline>
    <contour>
      <point x="375" y="-16" type="curve" smooth="yes"/>
      <point x="726" y="584" type="line" smooth="yes"/>
      <point x="736" y="602"/>
      <point x="730" y="628"/>
      <point x="711" y="639" type="curve" smooth="yes"/>
      <point x="693" y="649"/>
      <point x="667" y="643"/>
      <point x="656" y="624" type="curve" smooth="yes"/>
      <point x="329" y="64" type="line"/>
      <point x="115" y="235" type="line" smooth="yes"/>
      <point x="98" y="249"/>
      <point x="72" y="246"/>
      <point x="59" y="229" type="curve" smooth="yes"/>
      <point x="45" y="212"/>
      <point x="48" y="186"/>
      <point x="65" y="173" type="curve" smooth="yes"/>
      <point x="315" y="-27" type="line" smooth="yes"/>
      <point x="335" y="-43"/>
      <point x="362" y="-38"/>
    </contour>
  </outline>
</glyph>
<glyph name="W" format="1">
  <advance width="780"/>
  <unicode hex="0057"/>
  <outline>
    <contour>
      <point x="111" y="66" type="curve" smooth="yes"/>
      <point x="711" y="426" type="line" smooth="yes"/>
      <point x="721" y="432"/>
      <point x="730" y="447"/>
      <point x="730" y="460" type="curve" smooth="yes"/>
      <point x="730" y="800" type="line" smooth="yes"/>
      <point x="730" y="822"/>
      <point x="712" y="840"/>
      <point x="690" y="840" type="curve" smooth="yes"/>
      <point x="668" y="840"/>
      <point x="650" y="822"/>
      <point x="650" y="800" type="curve" smooth="yes"/>
      <point x="650" y="483" type="line"/>
      <point x="130" y="171" type="line"/>
      <point x="130" y="800" type="line" smooth="yes"/>
      <point x="130" y="822"/>
      <point x="112" y="840"/>
      <point x="90" y="840" type="curve" smooth="yes"/>
      <point x="68" y="840"/>
      <point x="50" y="822"/>
      <point x="50" y="800" type="curve" smooth="yes"/>
      <point x="50" y="100" type="line"/>
      <point x="50" y="66"/>
      <point x="82" y="48"/>
    </contour>
  </outline>
</glyph>
<glyph name="X" format="1">
  <advance width="780"/>
  <unicode hex="0058"/>
  <outline>
    <contour>
      <point x="130" y="-6" type="curve" smooth="yes"/>
      <point x="184" y="342" type="line"/>
      <point x="193" y="350" type="line"/>
      <point x="665" y="-31" type="line" smooth="yes"/>
      <point x="682" y="-45"/>
      <point x="708" y="-42"/>
      <point x="721" y="-25" type="curve" smooth="yes"/>
      <point x="735" y="-8"/>
      <point x="732" y="18"/>
      <point x="715" y="31" type="curve" smooth="yes"/>
      <point x="257" y="401" type="line"/>
      <point x="715" y="769" type="line" smooth="yes"/>
      <point x="732" y="782"/>
      <point x="735" y="808"/>
      <point x="721" y="825" type="curve" smooth="yes"/>
      <point x="708" y="842"/>
      <point x="682" y="845"/>
      <point x="665" y="831" type="curve" smooth="yes"/>
      <point x="193" y="453" type="line"/>
      <point x="187" y="458" type="line"/>
      <point x="129" y="806" type="line" smooth="yes"/>
      <point x="126" y="828"/>
      <point x="105" y="843"/>
      <point x="84" y="839" type="curve" smooth="yes"/>
      <point x="62" y="836"/>
      <point x="47" y="815"/>
      <point x="51" y="794" type="curve" smooth="yes"/>
      <point x="110" y="430" type="line" smooth="yes"/>
      <point x="112" y="421"/>
      <point x="118" y="410"/>
      <point x="125" y="405" type="curve" smooth="yes"/>
      <point x="129" y="401" type="line"/>
      <point x="121" y="395" type="line" smooth="yes"/>
      <point x="115" y="390"/>
      <point x="108" y="378"/>
      <point x="107" y="370" type="curve" smooth="yes"/>
      <point x="50" y="6" type="line" smooth="yes"/>
      <point x="47" y="-15"/>
      <point x="63" y="-36"/>
      <point x="84" y="-40" type="curve" smooth="yes"/>
      <point x="105" y="-43"/>
      <point x="126" y="-27"/>
    </contour>
  </outline>
</glyph>
<glyph name="Y" format="1">
  <advance width="687"/>
  <unicode hex="0059"/>
  <outline>
    <contour>
      <point x="111" y="-33" type="curve" smooth="yes"/>
      <point x="617" y="281" type="line" smooth="yes"/>
      <point x="641" y="295"/>
      <point x="644" y="324"/>
      <point x="624" y="343" type="curve" smooth="yes"/>
      <point x="118" y="827" type="line" smooth="yes"/>
      <point x="102" y="842"/>
      <point x="76" y="841"/>
      <point x="61" y="826" type="curve" smooth="yes"/>
      <point x="46" y="810"/>
      <point x="47" y="784"/>
      <point x="62" y="769" type="curve" smooth="yes"/>
      <point x="531" y="321" type="line"/>
      <point x="69" y="35" type="line" smooth="yes"/>
      <point x="51" y="24"/>
      <point x="45" y="-2"/>
      <point x="56" y="-20" type="curve" smooth="yes"/>
      <point x="67" y="-38"/>
      <point x="93" y="-44"/>
    </contour>
  </outline>
</glyph>
<glyph name="Z" format="1">
  <advance width="780"/>
  <unicode hex="005A"/>
  <outline>
    <contour>
      <point x="729" y="-7" type="curve" smooth="yes"/>
      <point x="733" y="15"/>
      <point x="718" y="36"/>
      <point x="697" y="39" type="curve" smooth="yes"/>
      <point x="141" y="134" type="line"/>
      <point x="130" y="801" type="line" smooth="yes"/>
      <point x="130" y="822"/>
      <point x="111" y="840"/>
      <point x="89" y="840" type="curve" smooth="yes"/>
      <point x="68" y="840"/>
      <point x="50" y="821"/>
      <point x="50" y="799" type="curve" smooth="yes"/>
      <point x="62" y="100" type="line" smooth="yes"/>
      <point x="62" y="82"/>
      <point x="77" y="64"/>
      <point x="95" y="61" type="curve" smooth="yes"/>
      <point x="683" y="-39" type="line" smooth="yes"/>
      <point x="705" y="-43"/>
      <point x="726" y="-28"/>
    </contour>
  </outline>
</glyph>
<glyph name="bracketleft" format="1">
  <advance width="480"/>
  <unicode hex="005B"/>
  <outline>
    <contour>
      <point x="425" y="-20" type="curve" smooth="yes"/>
      <point x="435" y="-1"/>
      <point x="429" y="24"/>
      <point x="410" y="35" type="curve" smooth="yes"/>
      <point x="142" y="186" type="line"/>
      <point x="426" y="783" type="line" smooth="yes"/>
      <point x="435" y="802"/>
      <point x="427" y="827"/>
      <point x="407" y="836" type="curve" smooth="yes"/>
      <point x="388" y="845"/>
      <point x="363" y="837"/>
      <point x="354" y="817" type="curve" smooth="yes"/>
      <point x="54" y="187" type="line" smooth="yes"/>
      <point x="45" y="169"/>
      <point x="52" y="145"/>
      <point x="70" y="135" type="curve" smooth="yes"/>
      <point x="370" y="-35" type="line" smooth="yes"/>
      <point x="389" y="-45"/>
      <point x="414" y="-39"/>
    </contour>
  </outline>
</glyph>
<glyph name="backslash" format="1">
  <advance width="779"/>
  <unicode hex="005C"/>
  <outline>
    <contour>
      <point x="714" y="-33" type="curve" smooth="yes"/>
      <point x="731" y="-20"/>
      <point x="735" y="6"/>
      <point x="722" y="23" type="curve" smooth="yes"/>
      <point x="122" y="823" type="line" smooth="yes"/>
      <point x="109" y="840"/>
      <point x="83" y="844"/>
      <point x="66" y="831" type="curve" smooth="yes"/>
      <point x="49" y="818"/>
      <point x="45" y="792"/>
      <point x="58" y="775" type="curve" smooth="yes"/>
      <point x="658" y="-25" type="line" smooth="yes"/>
      <point x="671" y="-42"/>
      <point x="697" y="-46"/>
    </contour>
  </outline>
</glyph>
<glyph name="e" format="1">
  <advance width="778"/>
  <unicode hex="0065"/>
  <outline>
    <contour>
      <point x="518" y="-28" type="curve" smooth="yes"/>
      <point x="716" y="168" type="line" smooth="yes"/>
      <point x="731" y="183"/>
      <point x="732" y="209"/>
      <point x="716" y="224" type="curve" smooth="yes"/>
      <point x="701" y="239"/>
      <point x="675" y="240"/>
      <point x="660" y="224" type="curve" smooth="yes"/>
      <point x="484" y="50" type="line"/>
      <point x="169" y="246" type="line"/>
      <point x="708" y="568" type="line" smooth="yes"/>
      <point x="726" y="579"/>
      <point x="732" y="604"/>
      <point x="721" y="623" type="curve" smooth="yes"/>
      <point x="710" y="641"/>
      <point x="685" y="647"/>
      <point x="666" y="636" type="curve" smooth="yes"/>
      <point x="71" y="281" type="line" smooth="yes"/>
      <point x="43" y="264"/>
      <point x="43" y="230"/>
      <point x="71" y="213" type="curve" smooth="yes"/>
      <point x="467" y="-34" type="line" smooth="yes"/>
      <point x="474" y="-38"/>
      <point x="481" y="-40"/>
      <point x="489" y="-40" type="curve"/>
      <point x="499" y="-40"/>
      <point x="510" y="-36"/>
    </contour>
  </outline>
</glyph>
<glyph name="f" format="1">
  <advance width="778"/>
  <unicode hex="0066"/>
  <outline>
    <contour>
      <point x="89" y="-36" type="curve" smooth="yes"/>
      <point x="111" y="-36"/>
      <point x="130" y="-18"/>
      <point x="130" y="3" type="curve" smooth="yes"/>
      <point x="134" y="229" type="line"/>
      <point x="360" y="364" type="line"/>
      <point x="490" y="364" type="line" smooth="yes"/>
      <point x="512" y="364"/>
      <point x="530" y="382"/>
      <point x="530" y="404" type="curve" smooth="yes"/>
      <point x="530" y="424"/>
      <point x="514" y="442"/>
      <point x="494" y="444" type="curve"/>
      <point x="709" y="572" type="line" smooth="yes"/>
      <point x="728" y="583"/>
      <point x="734" y="608"/>
      <point x="723" y="626" type="curve" smooth="yes"/>
      <point x="712" y="645"/>
      <point x="687" y="651"/>
      <point x="669" y="640" type="curve" smooth="yes"/>
      <point x="338" y="444" type="line"/>
      <point x="290" y="444" type="line" smooth="yes"/>
      <point x="268" y="444"/>
      <point x="250" y="426"/>
      <point x="250" y="404" type="curve" smooth="yes"/>
      <point x="250" y="400"/>
      <point x="251" y="396"/>
      <point x="252" y="393" type="curve"/>
      <point x="74" y="287" type="line" smooth="yes"/>
      <point x="63" y="280"/>
      <point x="54" y="265"/>
      <point x="54" y="253" type="curve" smooth="yes"/>
      <point x="50" y="5" type="line" smooth="yes"/>
      <point x="50" y="-17"/>
      <point x="68" y="-36"/>
    </contour>
  </outline>
</glyph>
<glyph name="h" format="1">
  <advance width="780"/>
  <unicode hex="0068"/>
  <outline>
    <contour>
      <point x="690" y="-44" type="curve" smooth="yes"/>
      <point x="712" y="-44"/>
      <point x="730" y="-26"/>
      <point x="730" y="-4" type="curve" smooth="yes"/>
      <point x="730" y="696" type="line" smooth="yes"/>
      <point x="730" y="731"/>
      <point x="697" y="749"/>
      <point x="668" y="729" type="curve" smooth="yes"/>
      <point x="149" y="383" type="line"/>
      <point x="130" y="798" type="line" smooth="yes"/>
      <point x="129" y="819"/>
      <point x="110" y="837"/>
      <point x="88" y="836" type="curve" smooth="yes"/>
      <point x="67" y="835"/>
      <point x="49" y="816"/>
      <point x="50" y="794" type="curve" smooth="yes"/>
      <point x="72" y="309" type="line" smooth="yes"/>
      <point x="73" y="275"/>
      <point x="106" y="259"/>
      <point x="134" y="278" type="curve" smooth="yes"/>
      <point x="650" y="621" type="line"/>
      <point x="650" y="-4" type="line" smooth="yes"/>
      <point x="650" y="-26"/>
      <point x="668" y="-44"/>
    </contour>
  </outline>
</glyph>
<glyph name="j" format="1">
  <advance width="779"/>
  <unicode hex="006A"/>
  <outline>
    <contour>
      <point x="110" y="-36" type="curve" smooth="yes"/>
      <point x="410" y="135" type="line" smooth="yes"/>
      <point x="416" y="139"/>
      <point x="423" y="147"/>
      <point x="426" y="153" type="curve" smooth="yes"/>
      <point x="726" y="782" type="line" smooth="yes"/>
      <point x="735" y="801"/>
      <point x="727" y="826"/>
      <point x="707" y="835" type="curve" smooth="yes"/>
      <point x="688" y="844"/>
      <point x="663" y="836"/>
      <point x="654" y="816" type="curve" smooth="yes"/>
      <point x="359" y="199" type="line"/>
      <point x="70" y="34" type="line" smooth="yes"/>
      <point x="51" y="23"/>
      <point x="45" y="-2"/>
      <point x="55" y="-21" type="curve" smooth="yes"/>
      <point x="66" y="-40"/>
      <point x="91" y="-46"/>
    </contour>
  </outline>
</glyph>
<glyph name="l" format="1">
  <advance width="780"/>
  <unicode hex="006C"/>
  <outline>
    <contour>
      <point x="729" y="-7" type="curve" smooth="yes"/>
      <point x="733" y="14"/>
      <point x="719" y="35"/>
      <point x="697" y="39" type="curve" smooth="yes"/>
      <point x="141" y="142" type="line"/>
      <point x="130" y="801" type="line" smooth="yes"/>
      <point x="130" y="822"/>
      <point x="111" y="840"/>
      <point x="89" y="840" type="curve" smooth="yes"/>
      <point x="68" y="840"/>
      <point x="50" y="821"/>
      <point x="50" y="799" type="curve" smooth="yes"/>
      <point x="62" y="108" type="line" smooth="yes"/>
      <point x="62" y="90"/>
      <point x="77" y="73"/>
      <point x="94" y="69" type="curve" smooth="yes"/>
      <point x="683" y="-39" type="line" smooth="yes"/>
      <point x="704" y="-43"/>
      <point x="725" y="-29"/>
    </contour>
  </outline>
</glyph>
<glyph name="m" format="1">
  <advance width="780"/>
  <unicode hex="006D"/>
  <outline>
    <contour>
      <point x="690" y="-41" type="curve" smooth="yes"/>
      <point x="712" y="-41"/>
      <point x="730" y="-23"/>
      <point x="730" y="-1" type="curve" smooth="yes"/>
      <point x="730" y="699" type="line" smooth="yes"/>
      <point x="730" y="733"/>
      <point x="698" y="751"/>
      <point x="669" y="733" type="curve" smooth="yes"/>
      <point x="69" y="373" type="line" smooth="yes"/>
      <point x="59" y="367"/>
      <point x="50" y="352"/>
      <point x="50" y="339" type="curve"/>
      <point x="50" y="-1" type="line" smooth="yes"/>
      <point x="50" y="-23"/>
      <point x="68" y="-41"/>
      <point x="90" y="-41" type="curve" smooth="yes"/>
      <point x="112" y="-41"/>
      <point x="130" y="-23"/>
      <point x="130" y="-1" type="curve" smooth="yes"/>
      <point x="130" y="316" type="line"/>
      <point x="650" y="628" type="line"/>
      <point x="650" y="-1" type="line" smooth="yes"/>
      <point x="650" y="-23"/>
      <point x="668" y="-41"/>
    </contour>
  </outline>
</glyph>
<glyph name="o" format="1">
  <advance width="778"/>
  <unicode hex="006F"/>
  <outline>
    <contour>
      <point x="533" y="-12" type="curve" smooth="yes"/>
      <point x="726" y="655" type="line" smooth="yes"/>
      <point x="737" y="693"/>
      <point x="701" y="721"/>
      <point x="667" y="701" type="curve" smooth="yes"/>
      <point x="70" y="343" type="line" smooth="yes"/>
      <point x="45" y="328"/>
      <point x="43" y="296"/>
      <point x="66" y="278" type="curve" smooth="yes"/>
      <point x="460" y="-32" type="line" smooth="yes"/>
      <point x="469" y="-39"/>
      <point x="479" y="-42"/>
      <point x="489" y="-40" type="curve"/>
      <point x="508" y="-43"/>
      <point x="528" y="-31"/>
    </contour>
    <contour>
      <point x="471" y="61" type="line"/>
      <point x="161" y="305" type="line"/>
      <point x="621" y="580" type="line"/>
    </contour>
  </outline>
</glyph>
<glyph name="p" format="1">
  <advance width="780"/>
  <unicode hex="0070"/>
  <outline>
    <contour>
      <point x="90" y="-37" type="curve" smooth="yes"/>
      <point x="112" y="-37"/>
      <point x="130" y="-19"/>
      <point x="130" y="3" type="curve" smooth="yes"/>
      <point x="130" y="76" type="line"/>
      <point x="710" y="421" type="line" smooth="yes"/>
      <point x="755" y="448"/>
      <point x="715" y="517"/>
      <point x="669" y="490" type="curve" smooth="yes"/>
      <point x="70" y="137" type="line" smooth="yes"/>
      <point x="59" y="131"/>
      <point x="50" y="116"/>
      <point x="50" y="103" type="curve"/>
      <point x="50" y="3" type="line" smooth="yes"/>
      <point x="50" y="-19"/>
      <point x="68" y="-37"/>
    </contour>
  </outline>
</glyph>
<glyph name="q" format="1">
  <advance width="778"/>
  <unicode hex="0071"/>
  <outline>
    <contour>
      <point x="530" y="-12" type="curve" smooth="yes"/>
      <point x="726" y="655" type="line" smooth="yes"/>
      <point x="737" y="693"/>
      <point x="701" y="721"/>
      <point x="667" y="701" type="curve" smooth="yes"/>
      <point x="70" y="343" type="line" smooth="yes"/>
      <point x="45" y="328"/>
      <point x="43" y="296"/>
      <point x="66" y="278" type="curve" smooth="yes"/>
      <point x="457" y="-32" type="line" smooth="yes"/>
      <point x="465" y="-39"/>
      <point x="476" y="-42"/>
      <point x="486" y="-40" type="curve"/>
      <point x="505" y="-43"/>
      <point x="525" y="-31"/>
    </contour>
    <contour>
      <point x="468" y="61" type="line"/>
      <point x="161" y="304" type="line"/>
      <point x="621" y="579" type="line"/>
    </contour>
  </outline>
</glyph>
<glyph name="t" format="1">
  <advance width="492"/>
  <unicode hex="0074"/>
  <outline>
    <contour>
      <point x="389" y="-40" type="curve" smooth="yes"/>
      <point x="411" y="-40"/>
      <point x="430" y="-22"/>
      <point x="430" y="-1" type="curve" smooth="yes"/>
      <point x="442" y="696" type="line" smooth="yes"/>
      <point x="443" y="712"/>
      <point x="430" y="730"/>
      <point x="415" y="735" type="curve" smooth="yes"/>
      <point x="103" y="838" type="line" smooth="yes"/>
      <point x="82" y="845"/>
      <point x="59" y="833"/>
      <point x="52" y="813" type="curve" smooth="yes"/>
      <point x="45" y="792"/>
      <point x="57" y="769"/>
      <point x="77" y="762" type="curve" smooth="yes"/>
      <point x="362" y="668" type="line"/>
      <point x="350" y="1" type="line" smooth="yes"/>
      <point x="350" y="-21"/>
      <point x="368" y="-40"/>
    </contour>
  </outline>
</glyph>
<glyph name="u" format="1">
  <advance width="779"/>
  <unicode hex="0075"/>
  <outline>
    <contour>
      <point x="718" y="99" type="curve" smooth="yes"/>
      <point x="729" y="798" type="line" smooth="yes"/>
      <point x="729" y="820"/>
      <point x="711" y="839"/>
      <point x="690" y="839" type="curve" smooth="yes"/>
      <point x="668" y="839"/>
      <point x="649" y="821"/>
      <point x="649" y="800" type="curve" smooth="yes"/>
      <point x="639" y="171" type="line"/>
      <point x="130" y="491" type="line"/>
      <point x="130" y="799" type="line" smooth="yes"/>
      <point x="130" y="821"/>
      <point x="112" y="839"/>
      <point x="90" y="839" type="curve" smooth="yes"/>
      <point x="68" y="839"/>
      <point x="50" y="821"/>
      <point x="50" y="799" type="curve" smooth="yes"/>
      <point x="50" y="469" type="line" smooth="yes"/>
      <point x="50" y="457"/>
      <point x="58" y="442"/>
      <point x="69" y="435" type="curve" smooth="yes"/>
      <point x="657" y="66" type="line" smooth="yes"/>
      <point x="686" y="48"/>
      <point x="718" y="65"/>
    </contour>
  </outline>
</glyph>
<glyph name="v" format="1">
  <advance width="780"/>
  <unicode hex="0076"/>
  <outline>
    <contour>
      <point x="297" y="99" type="curve" smooth="yes"/>
      <point x="722" y="645" type="line" smooth="yes"/>
      <point x="726" y="651"/>
      <point x="730" y="662"/>
      <point x="730" y="670" type="curve" smooth="yes"/>
      <point x="730" y="800" type="line" smooth="yes"/>
      <point x="730" y="822"/>
      <point x="712" y="840"/>
      <point x="690" y="840" type="curve" smooth="yes"/>
      <point x="668" y="840"/>
      <point x="650" y="822"/>
      <point x="650" y="800" type="curve" smooth="yes"/>
      <point x="650" y="684" type="line"/>
      <point x="283" y="212" type="line"/>
      <point x="129" y="810" type="line" smooth="yes"/>
      <point x="123" y="831"/>
      <point x="101" y="844"/>
      <point x="80" y="839" type="curve" smooth="yes"/>
      <point x="59" y="833"/>
      <point x="46" y="811"/>
      <point x="51" y="790" type="curve" smooth="yes"/>
      <point x="226" y="113" type="line" smooth="yes"/>
      <point x="235" y="78"/>
      <point x="274" y="70"/>
    </contour>
  </outline>
</glyph>
<glyph name="braceleft" format="1">
  <advance width="480"/>
  <unicode hex="007B"/>
  <outline>
    <contour>
      <point x="425" y="-22" type="curve" smooth="yes"/>
      <point x="435" y="-3"/>
      <point x="429" y="22"/>
      <point x="410" y="33" type="curve" smooth="yes"/>
      <point x="142" y="186" type="line"/>
      <point x="426" y="781" type="line" smooth="yes"/>
      <point x="435" y="800"/>
      <point x="427" y="825"/>
      <point x="407" y="834" type="curve" smooth="yes"/>
      <point x="388" y="843"/>
      <point x="363" y="835"/>
      <point x="354" y="815" type="curve" smooth="yes"/>
      <point x="54" y="187" type="line" smooth="yes"/>
      <point x="45" y="169"/>
      <point x="53" y="145"/>
      <point x="70" y="135" type="curve" smooth="yes"/>
      <point x="370" y="-37" type="line" smooth="yes"/>
      <point x="389" y="-47"/>
      <point x="414" y="-41"/>
    </contour>
  </outline>
</glyph>
<glyph name="braceright" format="1">
  <advance width="480"/>
  <unicode hex="007D"/>
  <outline>
    <contour>
      <point x="110" y="-36" type="curve" smooth="yes"/>
      <point x="410" y="136" type="line" smooth="yes"/>
      <point x="427" y="146"/>
      <point x="435" y="170"/>
      <point x="426" y="188" type="curve" smooth="yes"/>
      <point x="126" y="816" type="line" smooth="yes"/>
      <point x="117" y="836"/>
      <point x="92" y="844"/>
      <point x="73" y="835" type="curve" smooth="yes"/>
      <point x="53" y="826"/>
      <point x="45" y="801"/>
      <point x="54" y="782" type="curve" smooth="yes"/>
      <point x="338" y="187" type="line"/>
      <point x="70" y="34" type="line" smooth="yes"/>
      <point x="51" y="23"/>
      <point x="45" y="-2"/>
      <point x="55" y="-21" type="curve" smooth="yes"/>
      <point x="66" y="-40"/>
      <point x="91" y="-46"/>
    </contour>
  </outline>
</glyph>
<glyph name="asciitilde" format="1">
  <advance width="780"/>
  <unicode hex="007E"/>
  <outline>
    <contour>
      <point x="52" y="90" type="curve" smooth="yes"/>
      <point x="59" y="70"/>
      <point x="82" y="58"/>
      <point x="103" y="65" type="curve" smooth="yes"/>
      <point x="703" y="265" type="line" smooth="yes"/>
      <point x="723" y="272"/>
      <point x="735" y="295"/>
      <point x="728" y="316" type="curve" smooth="yes"/>
      <point x="721" y="336"/>
      <point x="698" y="348"/>
      <point x="677" y="341" type="curve" smooth="yes"/>
      <point x="77" y="141" type="line" smooth="yes"/>
      <point x="57" y="134"/>
      <point x="45" y="111"/>
    </contour>
  </outline>
</glyph>
<glyph name="sterling" format="1">
  <advance width="530"/>
  <unicode hex="00A3"/>
  <outline>
    <contour>
      <point x="451" y="-37" type="curve" smooth="yes"/>
      <point x="472" y="-31"/>
      <point x="484" y="-8"/>
      <point x="478" y="12" type="curve" smooth="yes"/>
      <point x="376" y="361" type="line"/>
      <point x="390" y="361" type="line" smooth="yes"/>
      <point x="412" y="361"/>
      <point x="430" y="379"/>
      <point x="430" y="401" type="curve" smooth="yes"/>
      <point x="430" y="423"/>
      <point x="412" y="441"/>
      <point x="390" y="441" type="curve" smooth="yes"/>
      <point x="353" y="441" type="line"/>
      <point x="292" y="649" type="line"/>
      <point x="463" y="768" type="line" smooth="yes"/>
      <point x="481" y="780"/>
      <point x="485" y="806"/>
      <point x="473" y="824" type="curve" smooth="yes"/>
      <point x="461" y="842"/>
      <point x="435" y="846"/>
      <point x="417" y="834" type="curve" smooth="yes"/>
      <point x="223" y="699" type="line" smooth="yes"/>
      <point x="209" y="690"/>
      <point x="202" y="670"/>
      <point x="207" y="655" type="curve" smooth="yes"/>
      <point x="269" y="441" type="line"/>
      <point x="90" y="441" type="line" smooth="yes"/>
      <point x="68" y="441"/>
      <point x="50" y="423"/>
      <point x="50" y="401" type="curve" smooth="yes"/>
      <point x="50" y="379"/>
      <point x="68" y="361"/>
      <point x="90" y="361" type="curve" smooth="yes"/>
      <point x="293" y="361" type="line"/>
      <point x="402" y="-10" type="line" smooth="yes"/>
      <point x="408" y="-31"/>
      <point x="431" y="-43"/>
    </contour>
  </outline>
</glyph>
<glyph name="section" format="1">
  <advance width="781"/>
  <unicode hex="00A7"/>
  <outline>
    <contour>
      <point x="705" y="141" type="curve" smooth="yes"/>
      <point x="644" y="197" type="line"/>
      <point x="647" y="200" type="line" smooth="yes"/>
      <point x="661" y="216"/>
      <point x="660" y="242"/>
      <point x="644" y="257" type="curve" smooth="yes"/>
      <point x="227" y="634" type="line"/>
      <point x="684" y="563" type="line" smooth="yes"/>
      <point x="705" y="560"/>
      <point x="726" y="576"/>
      <point x="730" y="597" type="curve" smooth="yes"/>
      <point x="733" y="618"/>
      <point x="717" y="639"/>
      <point x="696" y="643" type="curve" smooth="yes"/>
      <point x="108" y="734" type="line" smooth="yes"/>
      <point x="65" y="740"/>
      <point x="43" y="693"/>
      <point x="75" y="665" type="curve" smooth="yes"/>
      <point x="136" y="609" type="line"/>
      <point x="133" y="606" type="line" smooth="yes"/>
      <point x="119" y="590"/>
      <point x="120" y="564"/>
      <point x="136" y="549" type="curve" smooth="yes"/>
      <point x="553" y="172" type="line"/>
      <point x="96" y="243" type="line" smooth="yes"/>
      <point x="75" y="246"/>
      <point x="54" y="230"/>
      <point x="50" y="209" type="curve" smooth="yes"/>
      <point x="47" y="188"/>
      <point x="63" y="167"/>
      <point x="84" y="163" type="curve" smooth="yes"/>
      <point x="672" y="72" type="line" smooth="yes"/>
      <point x="715" y="66"/>
      <point x="737" y="113"/>
    </contour>
  </outline>
</glyph>
<glyph name="guillemotleft" format="1">
  <advance width="380"/>
  <unicode hex="00AB"/>
  <outline>
    <contour>
      <point x="290" y="437" type="curve" smooth="yes"/>
      <point x="268" y="437"/>
      <point x="250" y="419"/>
      <point x="250" y="397" type="curve" smooth="yes"/>
      <point x="250" y="-3" type="line" smooth="yes"/>
      <point x="250" y="-25"/>
      <point x="268" y="-43"/>
      <point x="290" y="-43" type="curve" smooth="yes"/>
      <point x="312" y="-43"/>
      <point x="330" y="-25"/>
      <point x="330" y="-3" type="curve" smooth="yes"/>
      <point x="330" y="397" type="line" smooth="yes"/>
      <point x="330" y="419"/>
      <point x="312" y="437"/>
    </contour>
    <contour>
      <point x="90" y="437" type="curve" smooth="yes"/>
      <point x="68" y="437"/>
      <point x="50" y="419"/>
      <point x="50" y="397" type="curve" smooth="yes"/>
      <point x="50" y="-3" type="line" smooth="yes"/>
      <point x="50" y="-25"/>
      <point x="68" y="-43"/>
      <point x="90" y="-43" type="curve" smooth="yes"/>
      <point x="112" y="-43"/>
      <point x="130" y="-25"/>
      <point x="130" y="-3" type="curve" smooth="yes"/>
      <point x="130" y="397" type="line" smooth="yes"/>
      <point x="130" y="419"/>
      <point x="112" y="437"/>
    </contour>
  </outline>
</glyph>
<glyph name="degree" format="1">
  <advance width="180"/>
  <unicode hex="00B0"/>
  <outline>
    <contour>
      <point x="90" y="473" type="curve" smooth="yes"/>
      <point x="112" y="473"/>
      <point x="130" y="491"/>
      <point x="130" y="513" type="curve" smooth="yes"/>
      <point x="130" y="523" type="line" smooth="yes"/>
      <point x="130" y="545"/>
      <point x="112" y="563"/>
      <point x="90" y="563" type="curve" smooth="yes"/>
      <point x="68" y="563"/>
      <point x="50" y="545"/>
      <point x="50" y="523" type="curve" smooth="yes"/>
      <point x="50" y="513" type="line" smooth="yes"/>
      <point x="50" y="491"/>
      <point x="68" y="473"/>
    </contour>
  </outline>
</glyph>
<glyph name="paragraph" format="1">
  <advance width="380"/>
  <unicode hex="00B6"/>
  <outline>
    <contour>
      <point x="290" y="-40" type="curve" smooth="yes"/>
      <point x="312" y="-40"/>
      <point x="330" y="-22"/>
      <point x="330" y="0" type="curve" smooth="yes"/>
      <point x="330" y="30" type="line" smooth="yes"/>
      <point x="330" y="33"/>
      <point x="329" y="38"/>
      <point x="328" y="41" type="curve" smooth="yes"/>
      <point x="128" y="711" type="line" smooth="yes"/>
      <point x="115" y="758"/>
      <point x="50" y="748"/>
      <point x="50" y="700" type="curve" smooth="yes"/>
      <point x="50" y="0" type="line" smooth="yes"/>
      <point x="50" y="-22"/>
      <point x="68" y="-40"/>
      <point x="90" y="-40" type="curve" smooth="yes"/>
      <point x="112" y="-40"/>
      <point x="130" y="-22"/>
      <point x="130" y="0" type="curve" smooth="yes"/>
      <point x="130" y="426" type="line"/>
      <point x="250" y="24" type="line"/>
      <point x="250" y="0" type="line" smooth="yes"/>
      <point x="250" y="-22"/>
      <point x="268" y="-40"/>
    </contour>
  </outline>
</glyph>
<glyph name="Aacute" format="1">
  <advance width="480"/>
  <unicode hex="00C1"/>
  <outline>
    <contour>
      <point x="57" y="906" type="curve" smooth="yes"/>
      <point x="69" y="888"/>
      <point x="94" y="883"/>
      <point x="112" y="895" type="curve" smooth="yes"/>
      <point x="412" y="1095" type="line" smooth="yes"/>
      <point x="430" y="1107"/>
      <point x="435" y="1132"/>
      <point x="423" y="1150" type="curve" smooth="yes"/>
      <point x="411" y="1168"/>
      <point x="386" y="1173"/>
      <point x="368" y="1161" type="curve" smooth="yes"/>
      <point x="68" y="961" type="line" smooth="yes"/>
      <point x="50" y="949"/>
      <point x="45" y="924"/>
    </contour>
    <contour>
      <point x="390" y="386" type="curve" smooth="yes"/>
      <point x="368" y="386"/>
      <point x="350" y="368"/>
      <point x="350" y="346" type="curve" smooth="yes"/>
      <point x="350" y="-4" type="line" smooth="yes"/>
      <point x="350" y="-26"/>
      <point x="368" y="-44"/>
      <point x="390" y="-44" type="curve" smooth="yes"/>
      <point x="412" y="-44"/>
      <point x="430" y="-26"/>
      <point x="430" y="-4" type="curve" smooth="yes"/>
      <point x="430" y="346" type="line" smooth="yes"/>
      <point x="430" y="368"/>
      <point x="412" y="386"/>
    </contour>
  </outline>
</glyph>
<glyph name="Acircumflex" format="1">
  <advance width="780"/>
  <unicode hex="00C2"/>
  <outline>
    <contour>
      <point x="50" y="928" type="curve" smooth="yes"/>
      <point x="50" y="906"/>
      <point x="68" y="888"/>
      <point x="90" y="888" type="curve" smooth="yes"/>
      <point x="690" y="888" type="line" smooth="yes"/>
      <point x="712" y="888"/>
      <point x="730" y="906"/>
      <point x="730" y="928" type="curve" smooth="yes"/>
      <point x="730" y="950"/>
      <point x="712" y="968"/>
      <point x="690" y="968" type="curve" smooth="yes"/>
      <point x="90" y="968" type="line" smooth="yes"/>
      <point x="68" y="968"/>
      <point x="50" y="950"/>
    </contour>
    <contour>
      <point x="690" y="386" type="curve" smooth="yes"/>
      <point x="668" y="386"/>
      <point x="650" y="368"/>
      <point x="650" y="346" type="curve" smooth="yes"/>
      <point x="650" y="-4" type="line" smooth="yes"/>
      <point x="650" y="-26"/>
      <point x="668" y="-44"/>
      <point x="690" y="-44" type="curve" smooth="yes"/>
      <point x="712" y="-44"/>
      <point x="730" y="-26"/>
      <point x="730" y="-4" type="curve" smooth="yes"/>
      <point x="730" y="346" type="line" smooth="yes"/>
      <point x="730" y="368"/>
      <point x="712" y="386"/>
    </contour>
  </outline>
</glyph>
<glyph name="Igrave" format="1">
  <advance width="779"/>
  <unicode hex="00CC"/>
  <outline>
    <contour>
      <point x="427" y="906" type="curve" smooth="yes"/>
      <point x="439" y="924"/>
      <point x="434" y="949"/>
      <point x="416" y="961" type="curve" smooth="yes"/>
      <point x="116" y="1161" type="line" smooth="yes"/>
      <point x="98" y="1173"/>
      <point x="73" y="1168"/>
      <point x="61" y="1150" type="curve" smooth="yes"/>
      <point x="49" y="1132"/>
      <point x="54" y="1107"/>
      <point x="72" y="1095" type="curve" smooth="yes"/>
      <point x="372" y="895" type="line" smooth="yes"/>
      <point x="390" y="883"/>
      <point x="415" y="888"/>
    </contour>
    <contour>
      <point x="126" y="-18" type="curve" smooth="yes"/>
      <point x="420" y="590" type="line"/>
      <point x="711" y="765" type="line" smooth="yes"/>
      <point x="729" y="776"/>
      <point x="735" y="801"/>
      <point x="724" y="820" type="curve" smooth="yes"/>
      <point x="713" y="838"/>
      <point x="688" y="844"/>
      <point x="669" y="833" type="curve" smooth="yes"/>
      <point x="369" y="653" type="line" smooth="yes"/>
      <point x="363" y="649"/>
      <point x="356" y="642"/>
      <point x="354" y="636" type="curve" smooth="yes"/>
      <point x="54" y="16" type="line" smooth="yes"/>
      <point x="45" y="-3"/>
      <point x="53" y="-28"/>
      <point x="73" y="-37" type="curve" smooth="yes"/>
      <point x="92" y="-46"/>
      <point x="117" y="-38"/>
    </contour>
  </outline>
</glyph>
<glyph name="Icircumflex" format="1">
  <advance width="784"/>
  <unicode hex="00CE"/>
  <outline>
    <contour>
      <point x="54" y="928" type="curve" smooth="yes"/>
      <point x="54" y="906"/>
      <point x="72" y="888"/>
      <point x="94" y="888" type="curve" smooth="yes"/>
      <point x="694" y="888" type="line" smooth="yes"/>
      <point x="716" y="888"/>
      <point x="734" y="906"/>
      <point x="734" y="928" type="curve" smooth="yes"/>
      <point x="734" y="950"/>
      <point x="716" y="968"/>
      <point x="694" y="968" type="curve" smooth="yes"/>
      <point x="94" y="968" type="line" smooth="yes"/>
      <point x="72" y="968"/>
      <point x="54" y="950"/>
    </contour>
    <contour>
      <point x="126" y="-18" type="curve" smooth="yes"/>
      <point x="420" y="590" type="line"/>
      <point x="711" y="765" type="line" smooth="yes"/>
      <point x="729" y="776"/>
      <point x="735" y="801"/>
      <point x="724" y="820" type="curve" smooth="yes"/>
      <point x="713" y="838"/>
      <point x="688" y="844"/>
      <point x="669" y="833" type="curve" smooth="yes"/>
      <point x="369" y="653" type="line" smooth="yes"/>
      <point x="363" y="649"/>
      <point x="356" y="642"/>
      <point x="354" y="636" type="curve" smooth="yes"/>
      <point x="54" y="16" type="line" smooth="yes"/>
      <point x="45" y="-3"/>
      <point x="53" y="-28"/>
      <point x="73" y="-37" type="curve" smooth="yes"/>
      <point x="92" y="-46"/>
      <point x="117" y="-38"/>
    </contour>
  </outline>
</glyph>
<glyph name="agrave" format="1">
  <advance width="780"/>
  <unicode hex="00E0"/>
  <outline>
    <contour>
      <point x="423" y="906" type="curve" smooth="yes"/>
      <point x="435" y="924"/>
      <point x="430" y="949"/>
      <point x="412" y="961" type="curve" smooth="yes"/>
      <point x="112" y="1161" type="line" smooth="yes"/>
      <point x="94" y="1173"/>
      <point x="69" y="1168"/>
      <point x="57" y="1150" type="curve" smooth="yes"/>
      <point x="45" y="1132"/>
      <point x="50" y="1107"/>
      <point x="68" y="1095" type="curve" smooth="yes"/>
      <point x="368" y="895" type="line" smooth="yes"/>
      <point x="386" y="883"/>
      <point x="411" y="888"/>
    </contour>
    <contour>
      <point x="690" y="386" type="curve" smooth="yes"/>
      <point x="668" y="386"/>
      <point x="650" y="368"/>
      <point x="650" y="346" type="curve" smooth="yes"/>
      <point x="650" y="-4" type="line" smooth="yes"/>
      <point x="650" y="-26"/>
      <point x="668" y="-44"/>
      <point x="690" y="-44" type="curve" smooth="yes"/>
      <point x="712" y="-44"/>
      <point x="730" y="-26"/>
      <point x="730" y="-4" type="curve" smooth="yes"/>
      <point x="730" y="346" type="line" smooth="yes"/>
      <point x="730" y="368"/>
      <point x="712" y="386"/>
    </contour>
  </outline>
</glyph>
<glyph name="atilde" format="1">
  <advance width="780"/>
  <unicode hex="00E3"/>
  <outline>
    <contour>
      <point x="52" y="915" type="curve" smooth="yes"/>
      <point x="59" y="895"/>
      <point x="82" y="883"/>
      <point x="103" y="890" type="curve" smooth="yes"/>
      <point x="703" y="1090" type="line" smooth="yes"/>
      <point x="723" y="1097"/>
      <point x="735" y="1120"/>
      <point x="728" y="1141" type="curve" smooth="yes"/>
      <point x="721" y="1161"/>
      <point x="698" y="1173"/>
      <point x="677" y="1166" type="curve" smooth="yes"/>
      <point x="77" y="966" type="line" smooth="yes"/>
      <point x="57" y="959"/>
      <point x="45" y="936"/>
    </contour>
    <contour>
      <point x="690" y="386" type="curve" smooth="yes"/>
      <point x="668" y="386"/>
      <point x="650" y="368"/>
      <point x="650" y="346" type="curve" smooth="yes"/>
      <point x="650" y="-4" type="line" smooth="yes"/>
      <point x="650" y="-26"/>
      <point x="668" y="-44"/>
      <point x="690" y="-44" type="curve" smooth="yes"/>
      <point x="712" y="-44"/>
      <point x="730" y="-26"/>
      <point x="730" y="-4" type="curve" smooth="yes"/>
      <point x="730" y="346" type="line" smooth="yes"/>
      <point x="730" y="368"/>
      <point x="712" y="386"/>
    </contour>
  </outline>
</glyph>
<glyph name="ccedilla" format="1">
  <advance width="782"/>
  <unicode hex="00E7"/>
  <outline>
    <contour>
      <point x="732" y="198" type="curve" smooth="yes"/>
      <point x="733" y="220"/>
      <point x="716" y="239"/>
      <point x="695" y="241" type="curve" smooth="yes"/>
      <point x="222" y="273" type="line"/>
      <point x="713" y="567" type="line" smooth="yes"/>
      <point x="731" y="578"/>
      <point x="737" y="603"/>
      <point x="726" y="622" type="curve" smooth="yes"/>
      <point x="715" y="640"/>
      <point x="690" y="646"/>
      <point x="671" y="635" type="curve" smooth="yes"/>
      <point x="71" y="276" type="line" smooth="yes"/>
      <point x="35" y="254"/>
      <point x="47" y="204"/>
      <point x="89" y="201" type="curve" smooth="yes"/>
      <point x="689" y="161" type="line" smooth="yes"/>
      <point x="711" y="160"/>
      <point x="730" y="177"/>
    </contour>
  </outline>
</glyph>
<glyph name="egrave" format="1">
  <advance width="784"/>
  <unicode hex="00E8"/>
  <outline>
    <contour>
      <point x="423" y="906" type="curve" smooth="yes"/>
      <point x="435" y="924"/>
      <point x="430" y="949"/>
      <point x="412" y="961" type="curve" smooth="yes"/>
      <point x="112" y="1161" type="line" smooth="yes"/>
      <point x="94" y="1173"/>
      <point x="69" y="1168"/>
      <point x="57" y="1150" type="curve" smooth="yes"/>
      <point x="45" y="1132"/>
      <point x="50" y="1107"/>
      <point x="68" y="1095" type="curve" smooth="yes"/>
      <point x="368" y="895" type="line" smooth="yes"/>
      <point x="386" y="883"/>
      <point x="411" y="888"/>
    </contour>
    <contour>
      <point x="525" y="-28" type="curve" smooth="yes"/>
      <point x="723" y="168" type="line" smooth="yes"/>
      <point x="738" y="183"/>
      <point x="739" y="209"/>
      <point x="723" y="224" type="curve" smooth="yes"/>
      <point x="708" y="239"/>
      <point x="682" y="240"/>
      <point x="667" y="224" type="curve" smooth="yes"/>
      <point x="491" y="50" type="line"/>
      <point x="176" y="246" type="line"/>
      <point x="715" y="568" type="line" smooth="yes"/>
      <point x="733" y="579"/>
      <point x="739" y="604"/>
      <point x="728" y="623" type="curve" smooth="yes"/>
      <point x="717" y="641"/>
      <point x="692" y="647"/>
      <point x="673" y="636" type="curve" smooth="yes"/>
      <point x="78" y="281" type="line" smooth="yes"/>
      <point x="50" y="264"/>
      <point x="50" y="230"/>
      <point x="78" y="213" type="curve" smooth="yes"/>
      <point x="474" y="-34" type="line" smooth="yes"/>
      <point x="481" y="-38"/>
      <point x="488" y="-40"/>
      <point x="496" y="-40" type="curve"/>
      <point x="506" y="-40"/>
      <point x="517" y="-36"/>
    </contour>
  </outline>
</glyph>
<glyph name="eacute" format="1">
  <advance width="778"/>
  <unicode hex="00E9"/>
  <outline>
    <contour>
      <point x="350" y="906" type="curve" smooth="yes"/>
      <point x="362" y="888"/>
      <point x="387" y="883"/>
      <point x="405" y="895" type="curve" smooth="yes"/>
      <point x="705" y="1095" type="line" smooth="yes"/>
      <point x="723" y="1107"/>
      <point x="728" y="1132"/>
      <point x="716" y="1150" type="curve" smooth="yes"/>
      <point x="704" y="1168"/>
      <point x="679" y="1173"/>
      <point x="661" y="1161" type="curve" smooth="yes"/>
      <point x="361" y="961" type="line" smooth="yes"/>
      <point x="343" y="949"/>
      <point x="338" y="924"/>
    </contour>
    <contour>
      <point x="518" y="-28" type="curve" smooth="yes"/>
      <point x="716" y="168" type="line" smooth="yes"/>
      <point x="731" y="183"/>
      <point x="732" y="209"/>
      <point x="716" y="224" type="curve" smooth="yes"/>
      <point x="701" y="239"/>
      <point x="675" y="240"/>
      <point x="660" y="224" type="curve" smooth="yes"/>
      <point x="484" y="50" type="line"/>
      <point x="169" y="246" type="line"/>
      <point x="708" y="568" type="line" smooth="yes"/>
      <point x="726" y="579"/>
      <point x="732" y="604"/>
      <point x="721" y="623" type="curve" smooth="yes"/>
      <point x="710" y="641"/>
      <point x="685" y="647"/>
      <point x="666" y="636" type="curve" smooth="yes"/>
      <point x="71" y="281" type="line" smooth="yes"/>
      <point x="43" y="264"/>
      <point x="43" y="230"/>
      <point x="71" y="213" type="curve" smooth="yes"/>
      <point x="467" y="-34" type="line" smooth="yes"/>
      <point x="474" y="-38"/>
      <point x="481" y="-40"/>
      <point x="489" y="-40" type="curve"/>
      <point x="499" y="-40"/>
      <point x="510" y="-36"/>
    </contour>
  </outline>
</glyph>
<glyph name="ecircumflex" format="1">
  <advance width="785"/>
  <unicode hex="00EA"/>
  <outline>
    <contour>
      <point x="50" y="928" type="curve" smooth="yes"/>
      <point x="50" y="906"/>
      <point x="68" y="888"/>
      <point x="90" y="888" type="curve" smooth="yes"/>
      <point x="690" y="888" type="line" smooth="yes"/>
      <point x="712" y="888"/>
      <point x="730" y="906"/>
      <point x="730" y="928" type="curve" smooth="yes"/>
      <point x="730" y="950"/>
      <point x="712" y="968"/>
      <point x="690" y="968" type="curve" smooth="yes"/>
      <point x="90" y="968" type="line" smooth="yes"/>
      <point x="68" y="968"/>
      <point x="50" y="950"/>
    </contour>
    <contour>
      <point x="525" y="-28" type="curve" smooth="yes"/>
      <point x="723" y="168" type="line" smooth="yes"/>
      <point x="738" y="183"/>
      <point x="739" y="209"/>
      <point x="723" y="224" type="curve" smooth="yes"/>
      <point x="708" y="239"/>
      <point x="682" y="240"/>
      <point x="667" y="224" type="curve" smooth="yes"/>
      <point x="491" y="50" type="line"/>
      <point x="176" y="246" type="line"/>
      <point x="715" y="568" type="line" smooth="yes"/>
      <point x="733" y="579"/>
      <point x="739" y="604"/>
      <point x="728" y="623" type="curve" smooth="yes"/>
      <point x="717" y="641"/>
      <point x="692" y="647"/>
      <point x="673" y="636" type="curve" smooth="yes"/>
      <point x="78" y="281" type="line" smooth="yes"/>
      <point x="50" y="264"/>
      <point x="50" y="230"/>
      <point x="78" y="213" type="curve" smooth="yes"/>
      <point x="474" y="-34" type="line" smooth="yes"/>
      <point x="481" y="-38"/>
      <point x="488" y="-40"/>
      <point x="496" y="-40" type="curve"/>
      <point x="506" y="-40"/>
      <point x="517" y="-36"/>
    </contour>
  </outline>
</glyph>
<glyph name="iacute" format="1">
  <advance width="783"/>
  <unicode hex="00ED"/>
  <outline>
    <contour>
      <point x="361" y="906" type="curve" smooth="yes"/>
      <point x="373" y="888"/>
      <point x="398" y="883"/>
      <point x="416" y="895" type="curve" smooth="yes"/>
      <point x="716" y="1095" type="line" smooth="yes"/>
      <point x="734" y="1107"/>
      <point x="739" y="1132"/>
      <point x="727" y="1150" type="curve" smooth="yes"/>
      <point x="715" y="1168"/>
      <point x="690" y="1173"/>
      <point x="672" y="1161" type="curve" smooth="yes"/>
      <point x="372" y="961" type="line" smooth="yes"/>
      <point x="354" y="949"/>
      <point x="349" y="924"/>
    </contour>
    <contour>
      <point x="126" y="-18" type="curve" smooth="yes"/>
      <point x="420" y="590" type="line"/>
      <point x="711" y="765" type="line" smooth="yes"/>
      <point x="729" y="776"/>
      <point x="735" y="801"/>
      <point x="724" y="820" type="curve" smooth="yes"/>
      <point x="713" y="838"/>
      <point x="688" y="844"/>
      <point x="669" y="833" type="curve" smooth="yes"/>
      <point x="369" y="653" type="line" smooth="yes"/>
      <point x="363" y="649"/>
      <point x="356" y="642"/>
      <point x="354" y="636" type="curve" smooth="yes"/>
      <point x="54" y="16" type="line" smooth="yes"/>
      <point x="45" y="-3"/>
      <point x="53" y="-28"/>
      <point x="73" y="-37" type="curve" smooth="yes"/>
      <point x="92" y="-46"/>
      <point x="117" y="-38"/>
    </contour>
  </outline>
</glyph>
<glyph name="ntilde" format="1">
  <advance width="784"/>
  <unicode hex="00F1"/>
  <outline>
    <contour>
      <point x="56" y="915" type="curve" smooth="yes"/>
      <point x="63" y="895"/>
      <point x="86" y="883"/>
      <point x="107" y="890" type="curve" smooth="yes"/>
      <point x="707" y="1090" type="line" smooth="yes"/>
      <point x="727" y="1097"/>
      <point x="739" y="1120"/>
      <point x="732" y="1141" type="curve" smooth="yes"/>
      <point x="725" y="1161"/>
      <point x="702" y="1173"/>
      <point x="681" y="1166" type="curve" smooth="yes"/>
      <point x="81" y="966" type="line" smooth="yes"/>
      <point x="61" y="959"/>
      <point x="49" y="936"/>
    </contour>
    <contour>
      <point x="130" y="-1" type="curve" smooth="yes"/>
      <point x="130" y="71" type="line"/>
      <point x="373" y="621" type="line"/>
      <point x="655" y="81" type="line" smooth="yes"/>
      <point x="675" y="41"/>
      <point x="730" y="54"/>
      <point x="730" y="99" type="curve" smooth="yes"/>
      <point x="730" y="799" type="line" smooth="yes"/>
      <point x="730" y="821"/>
      <point x="712" y="839"/>
      <point x="690" y="839" type="curve" smooth="yes"/>
      <point x="668" y="839"/>
      <point x="650" y="821"/>
      <point x="650" y="799" type="curve" smooth="yes"/>
      <point x="650" y="262" type="line"/>
      <point x="405" y="731" type="line" smooth="yes"/>
      <point x="388" y="764"/>
      <point x="348" y="762"/>
      <point x="333" y="729" type="curve" smooth="yes"/>
      <point x="53" y="95" type="line" smooth="yes"/>
      <point x="52" y="91"/>
      <point x="50" y="84"/>
      <point x="50" y="79" type="curve" smooth="yes"/>
      <point x="50" y="-1" type="line" smooth="yes"/>
      <point x="50" y="-23"/>
      <point x="68" y="-41"/>
      <point x="90" y="-41" type="curve" smooth="yes"/>
      <point x="112" y="-41"/>
      <point x="130" y="-23"/>
    </contour>
  </outline>
</glyph>
<glyph name="ograve" format="1">
  <advance width="778"/>
  <unicode hex="00F2"/>
  <outline>
    <contour>
      <point x="424" y="906" type="curve" smooth="yes"/>
      <point x="436" y="924"/>
      <point x="431" y="949"/>
      <point x="413" y="961" type="curve" smooth="yes"/>
      <point x="113" y="1161" type="line" smooth="yes"/>
      <point x="95" y="1173"/>
      <point x="70" y="1168"/>
      <point x="58" y="1150" type="curve" smooth="yes"/>
      <point x="46" y="1132"/>
      <point x="51" y="1107"/>
      <point x="69" y="1095" type="curve" smooth="yes"/>
      <point x="369" y="895" type="line" smooth="yes"/>
      <point x="387" y="883"/>
      <point x="412" y="888"/>
    </contour>
    <contour>
      <point x="533" y="-12" type="curve" smooth="yes"/>
      <point x="726" y="655" type="line" smooth="yes"/>
      <point x="737" y="693"/>
      <point x="701" y="721"/>
      <point x="667" y="701" type="curve" smooth="yes"/>
      <point x="70" y="343" type="line" smooth="yes"/>
      <point x="45" y="328"/>
      <point x="43" y="296"/>
      <point x="66" y="278" type="curve" smooth="yes"/>
      <point x="460" y="-32" type="line" smooth="yes"/>
      <point x="469" y="-39"/>
      <point x="479" y="-42"/>
      <point x="489" y="-40" type="curve"/>
      <point x="508" y="-43"/>
      <point x="528" y="-31"/>
    </contour>
    <contour>
      <point x="471" y="61" type="line"/>
      <point x="161" y="305" type="line"/>
      <point x="621" y="580" type="line"/>
    </contour>
  </outline>
</glyph>
<glyph name="oacute" format="1">
  <advance width="781"/>
  <unicode hex="00F3"/>
  <outline>
    <contour>
      <point x="358" y="906" type="curve" smooth="yes"/>
      <point x="370" y="888"/>
      <point x="395" y="883"/>
      <point x="413" y="895" type="curve" smooth="yes"/>
      <point x="713" y="1095" type="line" smooth="yes"/>
      <point x="731" y="1107"/>
      <point x="736" y="1132"/>
      <point x="724" y="1150" type="curve" smooth="yes"/>
      <point x="712" y="1168"/>
      <point x="687" y="1173"/>
      <point x="669" y="1161" type="curve" smooth="yes"/>
      <point x="369" y="961" type="line" smooth="yes"/>
      <point x="351" y="949"/>
      <point x="346" y="924"/>
    </contour>
    <contour>
      <point x="533" y="-12" type="curve" smooth="yes"/>
      <point x="726" y="655" type="line" smooth="yes"/>
      <point x="737" y="693"/>
      <point x="701" y="721"/>
      <point x="667" y="701" type="curve" smooth="yes"/>
      <point x="70" y="343" type="line" smooth="yes"/>
      <point x="45" y="328"/>
      <point x="43" y="296"/>
      <point x="66" y="278" type="curve" smooth="yes"/>
      <point x="460" y="-32" type="line" smooth="yes"/>
      <point x="469" y="-39"/>
      <point x="479" y="-42"/>
      <point x="489" y="-40" type="curve"/>
      <point x="508" y="-43"/>
      <point x="528" y="-31"/>
    </contour>
    <contour>
      <point x="471" y="61" type="line"/>
      <point x="161" y="305" type="line"/>
      <point x="621" y="580" type="line"/>
    </contour>
  </outline>
</glyph>
<glyph name="otilde" format="1">
  <advance width="781"/>
  <unicode hex="00F5"/>
  <outline>
    <contour>
      <point x="53" y="915" type="curve" smooth="yes"/>
      <point x="60" y="895"/>
      <point x="83" y="883"/>
      <point x="104" y="890" type="curve" smooth="yes"/>
      <point x="704" y="1090" type="line" smooth="yes"/>
      <point x="724" y="1097"/>
      <point x="736" y="1120"/>
      <point x="729" y="1141" type="curve" smooth="yes"/>
      <point x="722" y="1161"/>
      <point x="699" y="1173"/>
      <point x="678" y="1166" type="curve" smooth="yes"/>
      <point x="78" y="966" type="line" smooth="yes"/>
      <point x="58" y="959"/>
      <point x="46" y="936"/>
    </contour>
    <contour>
      <point x="533" y="-12" type="curve" smooth="yes"/>
      <point x="726" y="655" type="line" smooth="yes"/>
      <point x="737" y="693"/>
      <point x="701" y="721"/>
      <point x="667" y="701" type="curve" smooth="yes"/>
      <point x="70" y="343" type="line" smooth="yes"/>
      <point x="45" y="328"/>
      <point x="43" y="296"/>
      <point x="66" y="278" type="curve" smooth="yes"/>
      <point x="460" y="-32" type="line" smooth="yes"/>
      <point x="469" y="-39"/>
      <point x="479" y="-42"/>
      <point x="489" y="-40" type="curve"/>
      <point x="508" y="-43"/>
      <point x="528" y="-31"/>
    </contour>
    <contour>
      <point x="471" y="61" type="line"/>
      <point x="161" y="305" type="line"/>
      <point x="621" y="580" type="line"/>
    </contour>
  </outline>
</glyph>
<glyph name="oslash" format="1">
  <advance width="779"/>
  <unicode hex="00F8"/>
  <outline>
    <contour>
      <point x="122" y="-23" type="curve" smooth="yes"/>
      <point x="722" y="777" type="line" smooth="yes"/>
      <point x="735" y="794"/>
      <point x="731" y="820"/>
      <point x="714" y="833" type="curve" smooth="yes"/>
      <point x="697" y="846"/>
      <point x="671" y="842"/>
      <point x="658" y="825" type="curve" smooth="yes"/>
      <point x="58" y="25" type="line" smooth="yes"/>
      <point x="45" y="8"/>
      <point x="49" y="-18"/>
      <point x="66" y="-31" type="curve" smooth="yes"/>
      <point x="83" y="-44"/>
      <point x="109" y="-40"/>
    </contour>
    <contour>
      <point x="525" y="101" type="curve" smooth="yes"/>
      <point x="525" y="123"/>
      <point x="507" y="141"/>
      <point x="485" y="141" type="curve" smooth="yes"/>
      <point x="475" y="141" type="line" smooth="yes"/>
      <point x="453" y="141"/>
      <point x="435" y="123"/>
      <point x="435" y="101" type="curve" smooth="yes"/>
      <point x="435" y="79"/>
      <point x="453" y="61"/>
      <point x="475" y="61" type="curve" smooth="yes"/>
      <point x="485" y="61" type="line" smooth="yes"/>
      <point x="507" y="61"/>
      <point x="525" y="79"/>
    </contour>
  </outline>
</glyph>
<glyph name="ugrave" format="1">
  <advance width="779"/>
  <unicode hex="00F9"/>
  <outline>
    <contour>
      <point x="424" y="906" type="curve" smooth="yes"/>
      <point x="436" y="924"/>
      <point x="431" y="949"/>
      <point x="413" y="961" type="curve" smooth="yes"/>
      <point x="113" y="1161" type="line" smooth="yes"/>
      <point x="95" y="1173"/>
      <point x="70" y="1168"/>
      <point x="58" y="1150" type="curve" smooth="yes"/>
      <point x="46" y="1132"/>
      <point x="51" y="1107"/>
      <point x="69" y="1095" type="curve" smooth="yes"/>
      <point x="369" y="895" type="line" smooth="yes"/>
      <point x="387" y="883"/>
      <point x="412" y="888"/>
    </contour>
    <contour>
      <point x="718" y="99" type="curve" smooth="yes"/>
      <point x="729" y="798" type="line" smooth="yes"/>
      <point x="729" y="820"/>
      <point x="711" y="839"/>
      <point x="690" y="839" type="curve" smooth="yes"/>
      <point x="668" y="839"/>
      <point x="649" y="821"/>
      <point x="649" y="800" type="curve" smooth="yes"/>
      <point x="639" y="171" type="line"/>
      <point x="130" y="491" type="line"/>
      <point x="130" y="799" type="line" smooth="yes"/>
      <point x="130" y="821"/>
      <point x="112" y="839"/>
      <point x="90" y="839" type="curve" smooth="yes"/>
      <point x="68" y="839"/>
      <point x="50" y="821"/>
      <point x="50" y="799" type="curve" smooth="yes"/>
      <point x="50" y="469" type="line" smooth="yes"/>
      <point x="50" y="457"/>
      <point x="58" y="442"/>
      <point x="69" y="435" type="curve" smooth="yes"/>
      <point x="657" y="66" type="line" smooth="yes"/>
      <point x="686" y="48"/>
      <point x="718" y="65"/>
    </contour>
  </outline>
</glyph>
<glyph name="uacute" format="1">
  <advance width="781"/>
  <unicode hex="00FA"/>
  <outline>
    <contour>
      <point x="358" y="906" type="curve" smooth="yes"/>
      <point x="370" y="888"/>
      <point x="395" y="883"/>
      <point x="413" y="895" type="curve" smooth="yes"/>
      <point x="713" y="1095" type="line" smooth="yes"/>
      <point x="731" y="1107"/>
      <point x="736" y="1132"/>
      <point x="724" y="1150" type="curve" smooth="yes"/>
      <point x="712" y="1168"/>
      <point x="687" y="1173"/>
      <point x="669" y="1161" type="curve" smooth="yes"/>
      <point x="369" y="961" type="line" smooth="yes"/>
      <point x="351" y="949"/>
      <point x="346" y="924"/>
    </contour>
    <contour>
      <point x="718" y="99" type="curve" smooth="yes"/>
      <point x="729" y="798" type="line" smooth="yes"/>
      <point x="729" y="820"/>
      <point x="711" y="839"/>
      <point x="690" y="839" type="curve" smooth="yes"/>
      <point x="668" y="839"/>
      <point x="649" y="821"/>
      <point x="649" y="800" type="curve" smooth="yes"/>
      <point x="639" y="171" type="line"/>
      <point x="130" y="491" type="line"/>
      <point x="130" y="799" type="line" smooth="yes"/>
      <point x="130" y="821"/>
      <point x="112" y="839"/>
      <point x="90" y="839" type="curve" smooth="yes"/>
      <point x="68" y="839"/>
      <point x="50" y="821"/>
      <point x="50" y="799" type="curve" smooth="yes"/>
      <point x="50" y="469" type="line" smooth="yes"/>
      <point x="50" y="457"/>
      <point x="58" y="442"/>
      <point x="69" y="435" type="curve" smooth="yes"/>
      <point x="657" y="66" type="line" smooth="yes"/>
      <point x="686" y="48"/>
      <point x="718" y="65"/>
    </contour>
  </outline>
</glyph>
<glyph name="ucircumflex" format="1">
  <advance width="781"/>
  <unicode hex="00FB"/>
  <outline>
    <contour>
      <point x="51" y="928" type="curve" smooth="yes"/>
      <point x="51" y="906"/>
      <point x="69" y="888"/>
      <point x="91" y="888" type="curve" smooth="yes"/>
      <point x="691" y="888" type="line" smooth="yes"/>
      <point x="713" y="888"/>
      <point x="731" y="906"/>
      <point x="731" y="928" type="curve" smooth="yes"/>
      <point x="731" y="950"/>
      <point x="713" y="968"/>
      <point x="691" y="968" type="curve" smooth="yes"/>
      <point x="91" y="968" type="line" smooth="yes"/>
      <point x="69" y="968"/>
      <point x="51" y="950"/>
    </contour>
    <contour>
      <point x="718" y="99" type="curve" smooth="yes"/>
      <point x="729" y="798" type="line" smooth="yes"/>
      <point x="729" y="820"/>
      <point x="711" y="839"/>
      <point x="690" y="839" type="curve" smooth="yes"/>
      <point x="668" y="839"/>
      <point x="649" y="821"/>
      <point x="649" y="800" type="curve" smooth="yes"/>
      <point x="639" y="171" type="line"/>
      <point x="130" y="491" type="line"/>
      <point x="130" y="799" type="line" smooth="yes"/>
      <point x="130" y="821"/>
      <point x="112" y="839"/>
      <point x="90" y="839" type="curve" smooth="yes"/>
      <point x="68" y="839"/>
      <point x="50" y="821"/>
      <point x="50" y="799" type="curve" smooth="yes"/>
      <point x="50" y="469" type="line" smooth="yes"/>
      <point x="50" y="457"/>
      <point x="58" y="442"/>
      <point x="69" y="435" type="curve" smooth="yes"/>
      <point x="657" y="66" type="line" smooth="yes"/>
      <point x="686" y="48"/>
      <point x="718" y="65"/>
    </contour>
  </outline>
</glyph>
<glyph name="quotesinglbase" format="1">
  <advance width="279"/>
  <unicode hex="201A"/>
  <outline>
    <contour>
      <point x="208" y="171" type="curve" smooth="yes"/>
      <point x="189" y="180"/>
      <point x="164" y="172"/>
      <point x="154" y="153" type="curve" smooth="yes"/>
      <point x="54" y="-47" type="line" smooth="yes"/>
      <point x="45" y="-66"/>
      <point x="53" y="-91"/>
      <point x="72" y="-101" type="curve" smooth="yes"/>
      <point x="91" y="-110"/>
      <point x="116" y="-102"/>
      <point x="126" y="-83" type="curve" smooth="yes"/>
      <point x="226" y="117" type="line" smooth="yes"/>
      <point x="235" y="136"/>
      <point x="227" y="161"/>
    </contour>
  </outline>
</glyph>
<glyph name="minus" format="1">
  <advance width="580"/>
  <unicode hex="2212"/>
  <outline>
    <contour>
      <point x="50" y="322" type="curve" smooth="yes"/>
      <point x="50" y="300"/>
      <point x="68" y="282"/>
      <point x="90" y="282" type="curve" smooth="yes"/>
      <point x="490" y="282" type="line" smooth="yes"/>
      <point x="512" y="282"/>
      <point x="530" y="300"/>
      <point x="530" y="322" type="curve" smooth="yes"/>
      <point x="530" y="344"/>
      <point x="512" y="362"/>
      <point x="490" y="362" type="curve" smooth="yes"/>
      <point x="90" y="362" type="line" smooth="yes"/>
      <point x="68" y="362"/>
      <point x="50" y="344"/>
    </contour>
  </outline>
</glyph>
